<svg width="805" height="430" fill="none" xmlns="http://www.w3.org/2000/svg"><g filter="url(#a)"><path d="M96.474 136.386c7.047 5.839 10.57 19.328 10.57 40.468 0 5.033-.805 9.664-2.416 13.892-1.409 4.027-3.322 7.349-5.738 9.966a42.122 42.122 0 0 1-8.154 6.342c-2.818 1.812-5.738 3.221-8.758 4.228-3.02.805-5.738 1.409-8.154 1.812a153.17 153.17 0 0 1-6.04.906H.438V2.6h62.514c11.88 0 22.046 4.228 30.502 12.684s12.684 18.623 12.684 30.502v63.42c0 10.067-3.221 19.127-9.664 27.18ZM62.952 39.444h-25.67v63.722c0 6.845 8.356 10.973 25.066 12.382 2.014.201 3.725-.403 5.134-1.812 1.208-1.208 1.812-2.718 1.812-4.53v-63.42c0-1.812-.604-3.322-1.812-4.53-1.208-1.208-2.718-1.812-4.53-1.812ZM59.932 183.8c8.054 0 11.778-5.033 11.174-15.1-.402-8.859-5.033-14.496-13.892-16.912-7.248-.604-13.892-1.812-19.932-3.624V183.8h22.65Zm138.975-6.644V214h-72.178V2.6h36.844v174.556h35.334ZM326.864 43.068v130.464c0 11.073-4.027 20.637-12.08 28.69-7.852 7.852-17.315 11.778-28.388 11.778H247.74c-11.073 0-20.637-3.926-28.69-11.778-7.852-8.053-11.778-17.617-11.778-28.69V43.068c0-11.073 3.926-20.536 11.778-28.388 8.053-8.053 17.617-12.08 28.69-12.08h38.656c11.073 0 20.536 4.027 28.388 12.08 8.053 7.852 12.08 17.315 12.08 28.388Zm-47.112 132.88c3.02-1.409 5.436-3.423 7.248-6.04 2.013-2.819 3.02-6.04 3.02-9.664V56.356c0-2.416-.403-4.63-1.208-6.644a13.264 13.264 0 0 0-3.624-5.134 13.27 13.27 0 0 0-5.134-3.624c-2.013-.403-6.342-.604-12.986-.604-6.644 0-11.073.201-13.288.604-2.819 1.41-5.134 3.523-6.946 6.342-1.812 2.617-2.718 5.637-2.718 9.06v103.888c0 2.416.403 4.631 1.208 6.644.805 2.013 2.013 3.825 3.624 5.436 1.611 1.611 3.423 2.819 5.436 3.624 2.013.201 6.241.302 12.684.302s10.671-.101 12.684-.302Zm119.35-138.316c-2.215 0-4.429.503-6.644 1.51-2.013.805-3.825 2.013-5.436 3.624-1.409 1.41-2.517 3.12-3.322 5.134-.805 2.013-1.208 4.228-1.208 6.644v103.888c0 3.221.705 6.141 2.114 8.758 1.611 2.416 3.725 4.429 6.342 6.04 2.617 1.611 5.436 2.315 8.456 2.114h11.174c1.409 0 2.617-.302 3.624-.906a5.926 5.926 0 0 0 2.718-2.718c.805-1.208 1.208-2.416 1.208-3.624V88.368h32.918v100.566c-4.027 5.033-9.765 12.08-17.214 21.14-12.08 2.617-23.254 3.926-33.522 3.926-12.684 0-24.965-4.329-36.844-12.986-11.879-8.657-17.818-18.422-17.818-29.294V41.256c0-11.073 3.926-20.536 11.778-28.388 8.053-8.053 17.617-12.08 28.69-12.08h13.288c13.489 0 26.677 2.215 39.562 6.644l2.718.906v36.844l-2.718-.906c-12.885-4.43-26.173-6.644-39.864-6.644Zm122.162 0c-2.215 0-4.429.503-6.644 1.51-2.013.805-3.825 2.013-5.436 3.624-1.409 1.41-2.517 3.12-3.322 5.134-.805 2.013-1.208 4.228-1.208 6.644v103.888c0 3.221.705 6.141 2.114 8.758 1.611 2.416 3.725 4.429 6.342 6.04 2.617 1.611 5.436 2.315 8.456 2.114h11.174c1.409 0 2.617-.302 3.624-.906a5.926 5.926 0 0 0 2.718-2.718c.805-1.208 1.208-2.416 1.208-3.624V88.368h32.918v100.566c-4.027 5.033-9.765 12.08-17.214 21.14-12.08 2.617-23.254 3.926-33.522 3.926-12.684 0-24.965-4.329-36.844-12.986-11.879-8.657-17.818-18.422-17.818-29.294V41.256c0-11.073 3.926-20.536 11.778-28.388 8.053-8.053 17.617-12.08 28.69-12.08h13.288c13.489 0 26.677 2.215 39.562 6.644l2.718.906v36.844l-2.718-.906c-12.885-4.43-26.173-6.644-39.864-6.644Zm160.818 1.812h-53.454v50.434h41.374v36.844h-41.374v50.434h53.454V214h-90.298V2.6h90.298v36.844Zm108.94 100.868c6.242 9.261 9.463 19.127 9.664 29.596.403 16.107.403 31.005 0 44.696l-36.844-1.208a749.953 749.953 0 0 0 0-42.582c-.201-7.248-4.731-13.791-13.59-19.63-5.234-.604-10.167-1.611-14.798-3.02V214H698.61V2.6h62.514c11.879 0 22.046 4.228 30.502 12.684s12.684 18.623 12.684 30.502v50.736c0 1.007-.1 2.416-.302 4.228 0 1.611-.201 4.631-.604 9.06-.402 4.429-1.107 8.456-2.114 12.08-.805 3.624-2.114 7.248-3.926 10.872-1.812 3.624-3.926 6.141-6.342 7.55Zm-55.568-37.146c0 6.845 8.356 10.973 25.066 12.382 2.014.201 3.725-.403 5.134-1.812 1.208-1.208 1.812-2.718 1.812-4.53v-63.42a6.336 6.336 0 0 0-.906-3.322c-.402-1.007-1.107-1.711-2.114-2.114a6.334 6.334 0 0 0-3.322-.906h-25.67v63.722ZM237.443 341.522c-.403 12.684-1.007 21.14-1.812 25.368-1.208 6.443-5.235 12.785-12.08 19.026-8.255 7.651-18.019 11.476-29.294 11.476-1.208 0-2.416-.101-3.624-.302-7.852-.604-15.201-1.913-22.046-3.926V459h-36.844V247.6h62.514c11.879 0 22.046 4.228 30.502 12.684s12.684 18.623 12.684 30.502v50.736Zm-36.844 12.684v-63.42a6.337 6.337 0 0 0-.906-3.322c-.403-1.007-1.107-1.711-2.114-2.114a6.337 6.337 0 0 0-3.322-.906h-25.67v63.722c0 6.845 8.355 10.973 25.066 12.382 2.013.201 3.725-.403 5.134-1.812 1.208-1.208 1.812-2.718 1.812-4.53Zm124.599 67.95V459H253.02V247.6h36.844v174.556h35.334Zm112.253-141.94c.403 9.06 4.631 39.663 12.684 91.808 8.054 51.944 12.886 80.936 14.496 86.976h-38.052c-2.818-11.677-5.536-24.059-8.154-37.146h-45.904c-2.617 13.087-5.335 25.469-8.154 37.146h-37.75c1.611-6.04 6.342-34.529 14.194-85.466 7.852-50.937 12.08-80.634 12.684-89.09h-13.892V247.6h97.848v32.616ZM377.353 395.58h36.24c-6.644-38.857-10.872-75.903-12.684-111.136h-10.57c-1.812 35.233-6.14 72.279-12.986 111.136Zm151.888-111.136c-4.832 0-8.859 1.611-12.08 4.832s-4.832 7.248-4.832 12.08v103.888c0 4.832 1.611 8.859 4.832 12.08s7.248 4.832 12.08 4.832c13.489 0 26.677-1.913 39.562-5.738l2.718-.604v36.542l-2.718.906A138.298 138.298 0 0 1 529.241 459h-13.288c-11.073 0-20.637-3.926-28.69-11.778-7.852-8.053-11.778-17.617-11.778-28.69V288.068c0-11.073 3.926-20.536 11.778-28.388 8.053-8.053 17.617-12.08 28.69-12.08h13.288c13.489 0 26.677 2.215 39.562 6.644l2.718.906v36.542l-2.718-.906c-12.885-4.228-26.073-6.342-39.562-6.342Zm146.648 0h-53.454v50.434h41.374v36.844h-41.374v50.434h53.454V459h-90.298V247.6h90.298v36.844Z" fill="url(#b)" fill-opacity=".5"/></g><defs><linearGradient id="b" x1="91.25" y1="99.787" x2="727.911" y2="577.812" gradientUnits="userSpaceOnUse"><stop stop-color="#0012C7"/><stop offset="1" stop-color="#0067C7"/></linearGradient><filter id="a" x="-39.562" y="-39.212" width="883.872" height="538.212" filterUnits="userSpaceOnUse" color-interpolation-filters="sRGB"><feFlood flood-opacity="0" result="BackgroundImageFix"/><feGaussianBlur in="BackgroundImageFix" stdDeviation="20"/><feComposite in2="SourceAlpha" operator="in" result="effect1_backgroundBlur_38_255"/><feBlend in="SourceGraphic" in2="effect1_backgroundBlur_38_255" result="shape"/></filter></defs></svg>