<svg width="19" height="18" xmlns="http://www.w3.org/2000/svg"><path d="M14.675 0H4.325A3.791 3.791 0 0 0 .5 3.75V6A.75.75 0 0 0 2 6V3.75A2.29 2.29 0 0 1 4.325 1.5h10.35A2.29 2.29 0 0 1 17 3.75v10.5a2.29 2.29 0 0 1-2.325 2.25H4.325A2.29 2.29 0 0 1 2 14.25V12a.75.75 0 0 0-1.5 0v2.25A3.792 3.792 0 0 0 4.325 18h10.35a3.791 3.791 0 0 0 3.825-3.75V3.75A3.791 3.791 0 0 0 14.675 0Z" fill="#1D202C"/><path d="M2.75 9a.75.75 0 0 0 .75.75l9.891-.022-3.242 3.242a.75.75 0 1 0 1.06 1.06l3.44-3.439a2.25 2.25 0 0 0 0-3.181L11.21 3.97a.75.75 0 0 0-1.06 1.06l3.196 3.198L3.5 8.25a.75.75 0 0 0-.75.75Z"/></svg>