<svg width="134" height="76" fill="none" xmlns="http://www.w3.org/2000/svg"><path d="M13.704 11.965A15 15 0 0 1 28.394 0h75.86a15 15 0 0 1 14.622 11.655l11.923 52.115c1.432 6.261-3.325 12.23-9.748 12.23h-108.3c-6.337 0-11.075-5.818-9.793-12.023l10.746-52.012Z" fill="#FFA14E"/><mask id="a" style="mask-type:alpha" maskUnits="userSpaceOnUse" x="2" y="0" width="130" height="76"><path d="M13.704 11.965A15 15 0 0 1 28.394 0h75.86a15 15 0 0 1 14.622 11.655l11.923 52.115c1.432 6.261-3.325 12.23-9.748 12.23h-108.3c-6.337 0-11.075-5.818-9.793-12.023l10.746-52.012Z" fill="#013AE6"/></mask><g mask="url(#a)"><path d="M14.998 98.351C7.888 89.92 4.332 79.135 4.332 66c0-13.135 3.556-23.919 10.666-32.351C22.108 25.216 30.716 21 40.821 21c10.104 0 18.712 4.216 25.823 12.649C73.754 42.08 77.309 52.865 77.309 66c0 13.135-3.555 23.919-10.665 32.351C59.533 106.784 50.925 111 40.82 111c-10.105 0-18.712-4.216-25.823-12.649Zm9.207-55.702c-4.267 5.513-6.4 13.297-6.4 23.351 0 10.054 2.133 17.838 6.4 23.351 4.34 5.514 9.88 8.27 16.616 8.27 6.736 0 12.238-2.756 16.504-8.27 4.341-5.513 6.512-13.297 6.512-23.351 0-10.054-2.171-17.838-6.512-23.351-4.267-5.514-9.768-8.27-16.504-8.27-6.736 0-12.275 2.756-16.616 8.27Z" fill="url(#b)"/><path d="M84.072 91.54V78.163l26.384-54.73h14.034l-26.384 54.73h25.823V57.486h12.911v20.676h11.227v13.379H136.84v17.027h-12.911V91.541H84.072Z" fill="url(#c)"/></g><defs><linearGradient id="b" x1="75.717" y1="47" x2="76.236" y2="111" gradientUnits="userSpaceOnUse"><stop stop-color="#fff"/><stop offset="1" stop-opacity="0"/></linearGradient><linearGradient id="c" x1="75.717" y1="47" x2="76.236" y2="111" gradientUnits="userSpaceOnUse"><stop stop-color="#fff"/><stop offset="1" stop-opacity="0"/></linearGradient></defs></svg>