<svg width="133" height="76" fill="none" xmlns="http://www.w3.org/2000/svg"><path d="M13.696 11.992A15 15 0 0 1 28.39 0h74.897a15 15 0 0 1 14.629 11.684l11.811 52.105c1.42 6.256-3.336 12.211-9.751 12.211H12.846C6.518 76 1.78 70.195 3.05 63.994l10.646-52.002Z" fill="#013AE6"/><mask id="a" style="mask-type:alpha" maskUnits="userSpaceOnUse" x="2" y="0" width="128" height="76"><path d="M13.696 11.992A15 15 0 0 1 28.39 0h74.897a15 15 0 0 1 14.629 11.684l11.811 52.105c1.42 6.256-3.336 12.211-9.751 12.211H12.846C6.518 76 1.78 70.195 3.05 63.994l10.646-52.002Z" fill="#013AE6"/></mask><g mask="url(#a)"><path d="M17.354 98.351C10.003 89.92 6.327 79.135 6.327 66c0-13.135 3.675-23.919 11.027-32.351C24.705 25.216 33.604 21 44.05 21c10.447 0 19.346 4.216 26.697 12.649C78.098 42.08 81.774 52.865 81.774 66c0 13.135-3.676 23.919-11.027 32.351C63.396 106.784 54.497 111 44.05 111c-10.446 0-19.345-4.216-26.696-12.649Zm9.518-55.702C22.46 48.162 20.256 55.946 20.256 66c0 10.054 2.205 17.838 6.616 23.351 4.488 5.514 10.214 8.27 17.178 8.27 6.965 0 12.652-2.756 17.063-8.27 4.488-5.513 6.732-13.297 6.732-23.351 0-10.054-2.244-17.838-6.732-23.351-4.41-5.514-10.098-8.27-17.063-8.27-6.964 0-12.69 2.756-17.178 8.27Z" fill="url(#b)"/><path d="M89.926 51.405v-15.81l15.09-12.163h12.187v85.136h-13.348V40.46L89.926 51.405Z" fill="url(#c)"/></g><defs><linearGradient id="b" x1="61.765" y1="46.5" x2="61.765" y2="111" gradientUnits="userSpaceOnUse"><stop stop-color="#fff"/><stop offset="1" stop-opacity="0"/></linearGradient><linearGradient id="c" x1="61.765" y1="46.5" x2="61.765" y2="111" gradientUnits="userSpaceOnUse"><stop stop-color="#fff"/><stop offset="1" stop-opacity="0"/></linearGradient></defs></svg>