<svg width="134" height="76" fill="none" xmlns="http://www.w3.org/2000/svg"><path d="M13.704 11.965A15 15 0 0 1 28.394 0h75.86a15 15 0 0 1 14.622 11.655l11.923 52.115c1.432 6.261-3.325 12.23-9.748 12.23h-108.3c-6.337 0-11.075-5.818-9.793-12.023l10.746-52.012Z" fill="#01D0F9"/><mask id="a" style="mask-type:alpha" maskUnits="userSpaceOnUse" x="2" y="0" width="130" height="76"><path d="M13.704 11.965A15 15 0 0 1 28.394 0h75.86a15 15 0 0 1 14.622 11.655l11.923 52.115c1.432 6.261-3.325 12.23-9.748 12.23h-108.3c-6.337 0-11.075-5.818-9.793-12.023l10.746-52.012Z" fill="#013AE6"/></mask><g mask="url(#a)"><path d="M14.117 98.351C6.951 89.92 3.367 79.135 3.367 66c0-13.135 3.584-23.919 10.75-32.351C21.284 25.216 29.96 21 40.143 21s18.86 4.216 26.026 12.649C73.336 42.08 76.92 52.865 76.92 66c0 13.135-3.583 23.919-10.75 32.351C59.003 106.784 50.327 111 40.143 111s-18.86-4.216-26.026-12.649Zm9.28-55.702c-4.3 5.513-6.45 13.297-6.45 23.351 0 10.054 2.15 17.838 6.45 23.351 4.375 5.514 9.957 8.27 16.746 8.27 6.79 0 12.334-2.756 16.634-8.27C61.153 83.838 63.34 76.054 63.34 66c0-10.054-2.187-17.838-6.563-23.351-4.3-5.514-9.844-8.27-16.634-8.27-6.79 0-12.372 2.756-16.747 8.27Z" fill="url(#b)"/><path d="M85.998 80.595c0-3.892.792-7.946 2.376-12.163 1.66-4.297 3.244-7.662 4.753-10.094 1.584-2.514 3.734-5.635 6.45-9.365l18.105-25.54h15.276l-17.087 23.959-4.979 4.621v.609l2.264-.852c2.263-.648 4.714-.973 7.355-.973 7.393 0 13.654 2.879 18.784 8.635 5.205 5.676 7.807 12.73 7.807 21.163 0 8.594-2.866 15.81-8.599 21.648-5.734 5.838-13.051 8.757-21.953 8.757-8.901 0-16.219-2.919-21.952-8.757-5.733-5.838-8.6-13.054-8.6-21.648Zm18.218-12.65c-3.093 3.244-4.64 7.46-4.64 12.65 0 5.189 1.547 9.445 4.64 12.77 3.093 3.243 7.204 4.865 12.334 4.865s9.241-1.622 12.334-4.865c3.093-3.325 4.64-7.581 4.64-12.77 0-5.19-1.547-9.406-4.64-12.65-3.093-3.323-7.204-4.985-12.334-4.985s-9.241 1.662-12.334 4.986Z" fill="url(#c)"/></g><defs><linearGradient id="b" x1="74.753" y1="45.5" x2="75.271" y2="111" gradientUnits="userSpaceOnUse"><stop stop-color="#fff"/><stop offset="1" stop-opacity="0"/></linearGradient><linearGradient id="c" x1="74.753" y1="45.5" x2="75.271" y2="111" gradientUnits="userSpaceOnUse"><stop stop-color="#fff"/><stop offset="1" stop-opacity="0"/></linearGradient></defs></svg>