<svg width="98" height="98" fill="none" xmlns="http://www.w3.org/2000/svg"><path d="m49.321 8.225 8.86 8.008 11.676-2.51 3.669 11.363 11.368 3.662-2.505 11.679 8.013 8.854-8.008 8.86 2.511 11.676-11.364 3.669-3.662 11.368-11.678-2.505-8.855 8.013-8.86-8.008-11.675 2.51-3.67-11.363-11.368-3.662L16.28 58.16l-8.013-8.854 8.007-8.86-2.51-11.676 11.363-3.669 3.662-11.368 11.679 2.505 8.854-8.013Z" fill="#B9FF66"/><path d="M48.078 66.971 30.126 55.954l3.279-6.048 12.178 7.477 14.96-26.609 5.81 3.693L48.078 66.97Z" fill="#1D202C"/></svg>