<svg width="34" height="34" fill="none" xmlns="http://www.w3.org/2000/svg"><rect width="34" height="34" rx="17" fill="#fff"/><g clip-path="url(#a)"><path d="M14 18.5s1.125 1.5 3 1.5 3-1.5 3-1.5m.75-3.57c-.296.364-.701.57-1.125.57-.424 0-.817-.206-1.125-.57m-3 0c-.296.364-.701.57-1.125.57-.424 0-.818-.206-1.125-.57M24.5 17a7.5 7.5 0 1 1-15 0 7.5 7.5 0 0 1 15 0Z" stroke="#1D202C" stroke-width="1.5" stroke-linecap="round" stroke-linejoin="round"/></g><defs><clipPath id="a"><path fill="#fff" transform="translate(8 8)" d="M0 0h18v18H0z"/></clipPath></defs></svg>