<svg width="19" height="18" viewBox="0 0 19 18" fill="none" xmlns="http://www.w3.org/2000/svg">
<path d="M14.675 3.03503e-05H4.325C3.32077 -0.00896872 2.354 0.380841 1.63688 1.0839C0.919761 1.78696 0.510886 2.74582 0.5 3.75003V6.00003C0.5 6.19894 0.579018 6.38971 0.71967 6.53036C0.860322 6.67101 1.05109 6.75003 1.25 6.75003C1.44891 6.75003 1.63968 6.67101 1.78033 6.53036C1.92098 6.38971 2 6.19894 2 6.00003V3.75003C2.01065 3.14358 2.26142 2.56611 2.69728 2.14431C3.13315 1.7225 3.71852 1.4908 4.325 1.50003H14.675C15.2815 1.4908 15.8668 1.7225 16.3027 2.14431C16.7386 2.56611 16.9893 3.14358 17 3.75003V14.25C16.9893 14.8565 16.7386 15.4339 16.3027 15.8558C15.8668 16.2776 15.2815 16.5093 14.675 16.5H4.325C3.71852 16.5093 3.13315 16.2776 2.69728 15.8558C2.26142 15.4339 2.01065 14.8565 2 14.25V12C2 11.8011 1.92098 11.6104 1.78033 11.4697C1.63968 11.329 1.44891 11.25 1.25 11.25C1.05109 11.25 0.860322 11.329 0.71967 11.4697C0.579018 11.6104 0.5 11.8011 0.5 12V14.25C0.510886 15.2542 0.919761 16.2131 1.63688 16.9162C2.354 17.6192 3.32077 18.009 4.325 18H14.675C15.6792 18.009 16.646 17.6192 17.3631 16.9162C18.0802 16.2131 18.4891 15.2542 18.5 14.25V3.75003C18.4891 2.74582 18.0802 1.78696 17.3631 1.0839C16.646 0.380841 15.6792 -0.00896872 14.675 3.03503e-05Z" fill="#1D202C"/>
<path d="M2.75 9.00028C2.75 9.19919 2.82902 9.38995 2.96967 9.53061C3.11032 9.67126 3.30109 9.75028 3.5 9.75028L13.391 9.72778L10.1488 12.97C10.0771 13.0392 10.02 13.122 9.98067 13.2135C9.94137 13.305 9.92068 13.4034 9.91981 13.503C9.91895 13.6026 9.93792 13.7013 9.97563 13.7935C10.0133 13.8857 10.069 13.9694 10.1395 14.0398C10.2099 14.1102 10.2936 14.1659 10.3858 14.2036C10.478 14.2414 10.5767 14.2603 10.6763 14.2595C10.7759 14.2586 10.8743 14.2379 10.9658 14.1986C11.0573 14.1593 11.1401 14.1022 11.2093 14.0305L14.6488 10.591C15.0706 10.1691 15.3075 9.5969 15.3075 9.00028C15.3075 8.40366 15.0706 7.83146 14.6488 7.40953L11.2108 3.97003C11.0693 3.83341 10.8798 3.75781 10.6832 3.75952C10.4866 3.76123 10.2984 3.84011 10.1594 3.97916C10.0203 4.11822 9.94145 4.30633 9.93974 4.50298C9.93804 4.69962 10.0136 4.88907 10.1503 5.03053L13.3468 8.22778L3.5 8.25028C3.30109 8.25028 3.11032 8.32929 2.96967 8.46995C2.82902 8.6106 2.75 8.80136 2.75 9.00028Z" fill="#1D202C"/>
</svg>
