<svg width="134" height="76" viewBox="0 0 134 76" fill="none" xmlns="http://www.w3.org/2000/svg">
<path d="M13.7041 11.9649C15.1437 4.99762 21.2795 0 28.3939 0H104.254C111.249 0 117.316 4.83545 118.876 11.6547L130.799 63.7698C132.231 70.0311 127.474 76 121.051 76H12.7508C6.41437 76 1.67551 70.1819 2.95763 63.9766L13.7041 11.9649Z" fill="#FFA14E"/>
<mask id="mask0_38_204" style="mask-type:alpha" maskUnits="userSpaceOnUse" x="2" y="0" width="130" height="76">
<path d="M13.7041 11.9649C15.1437 4.99762 21.2795 0 28.3939 0H104.254C111.249 0 117.316 4.83545 118.876 11.6547L130.799 63.7698C132.231 70.0311 127.474 76 121.051 76H12.7508C6.41437 76 1.67551 70.1819 2.95763 63.9766L13.7041 11.9649Z" fill="#013AE6"/>
</mask>
<g mask="url(#mask0_38_204)">
<path d="M14.9982 98.3513C7.88757 89.9189 4.33228 79.1351 4.33228 66C4.33228 52.8649 7.88757 42.0811 14.9982 33.6486C22.1087 25.2162 30.7163 21 40.8208 21C50.9253 21 59.5329 25.2162 66.6435 33.6486C73.754 42.0811 77.3093 52.8649 77.3093 66C77.3093 79.1351 73.754 89.9189 66.6435 98.3513C59.5329 106.784 50.9253 111 40.8208 111C30.7163 111 22.1087 106.784 14.9982 98.3513ZM24.2045 42.6486C19.9381 48.1622 17.805 55.9459 17.805 66C17.805 76.0541 19.9381 83.8378 24.2045 89.3514C28.5457 94.8649 34.0845 97.6216 40.8208 97.6216C47.5571 97.6216 53.0585 94.8649 57.3248 89.3514C61.666 83.8378 63.8366 76.0541 63.8366 66C63.8366 55.9459 61.666 48.1622 57.3248 42.6486C53.0585 37.1351 47.5571 34.3784 40.8208 34.3784C34.0845 34.3784 28.5457 37.1351 24.2045 42.6486Z" fill="url(#paint0_linear_38_204)"/>
<path d="M84.072 91.5406V78.1622L110.456 23.4324H124.49L98.106 78.1622H123.929V57.4865H124.49H136.84V78.1622H148.067V91.5406H136.84V108.568H123.929V91.5406H84.072Z" fill="url(#paint1_linear_38_204)"/>
</g>
<defs>
<linearGradient id="paint0_linear_38_204" x1="75.7174" y1="47" x2="76.2357" y2="111" gradientUnits="userSpaceOnUse">
<stop stop-color="white"/>
<stop offset="1" stop-opacity="0"/>
</linearGradient>
<linearGradient id="paint1_linear_38_204" x1="75.7174" y1="47" x2="76.2357" y2="111" gradientUnits="userSpaceOnUse">
<stop stop-color="white"/>
<stop offset="1" stop-opacity="0"/>
</linearGradient>
</defs>
</svg>
