<svg width="133" height="76" viewBox="0 0 133 76" fill="none" xmlns="http://www.w3.org/2000/svg">
<path d="M13.6959 11.9915C15.1249 5.01165 21.2665 0 28.3911 0H103.288C110.294 0 116.368 4.85058 117.917 11.6838L129.728 63.7892C131.147 70.0454 126.391 76 119.976 76H12.8465C6.51747 76 1.78028 70.1947 3.04965 63.9944L13.6959 11.9915Z" fill="#C97BFE"/>
<mask id="mask0_313_60" style="mask-type:alpha" maskUnits="userSpaceOnUse" x="2" y="0" width="128" height="76">
<path d="M13.6959 11.9915C15.1249 5.01165 21.2665 0 28.3911 0H103.288C110.294 0 116.368 4.85058 117.917 11.6838L129.728 63.7892C131.147 70.0454 126.391 76 119.976 76H12.8465C6.51747 76 1.78028 70.1947 3.04965 63.9944L13.6959 11.9915Z" fill="#013AE6"/>
</mask>
<g mask="url(#mask0_313_60)">
<path d="M14.153 98.3513C7.02397 89.9189 3.45947 79.1351 3.45947 66C3.45947 52.8649 7.02397 42.0811 14.153 33.6486C21.282 25.2162 29.9118 21 40.0425 21C50.1732 21 58.803 25.2162 65.932 33.6486C73.061 42.0811 76.6255 52.8649 76.6255 66C76.6255 79.1351 73.061 89.9189 65.932 98.3513C58.803 106.784 50.1732 111 40.0425 111C29.9118 111 21.282 106.784 14.153 98.3513ZM23.3831 42.6486C19.1057 48.1622 16.967 55.9459 16.967 66C16.967 76.0541 19.1057 83.8378 23.3831 89.3514C27.7356 94.8649 33.2887 97.6216 40.0425 97.6216C46.7963 97.6216 52.3119 94.8649 56.5893 89.3514C60.9417 83.8378 63.1179 76.0541 63.1179 66C63.1179 55.9459 60.9417 48.1622 56.5893 42.6486C52.3119 37.1351 46.7963 34.3784 40.0425 34.3784C33.2887 34.3784 27.7356 37.1351 23.3831 42.6486Z" fill="url(#paint0_linear_313_60)"/>
<path d="M85.0941 84.2432H98.6017C99.127 86.7568 100.14 88.9865 101.641 90.9324C105.018 95.3919 109.82 97.6216 116.049 97.6216C121.227 97.6216 125.317 96.2432 128.318 93.4865C131.395 90.6487 132.933 87.1622 132.933 83.027C132.933 78.3243 131.545 74.6351 128.769 71.9595C126.067 69.2027 122.202 67.8243 117.175 67.8243H98.0389V55.6622L121.677 37.4189V36.8108H89.0338V23.4324H140.813V36.6892L120.552 52.6216L114.923 55.0541V55.6622L116.724 55.4189C119.201 55.1757 120.664 55.0541 121.114 55.0541C128.168 55.0541 134.059 57.6892 138.787 62.9595C143.514 68.2297 145.878 74.9189 145.878 83.027C145.878 90.8108 143.102 97.4189 137.549 102.851C131.995 108.284 124.829 111 116.049 111C104.417 111 95.8251 106.541 90.272 97.6216C87.8707 93.8108 86.1447 89.3513 85.0941 84.2432Z" fill="url(#paint1_linear_313_60)"/>
</g>
<defs>
<linearGradient id="paint0_linear_313_60" x1="74.1909" y1="42" x2="74.714" y2="111" gradientUnits="userSpaceOnUse">
<stop stop-color="white"/>
<stop offset="1" stop-opacity="0"/>
</linearGradient>
<linearGradient id="paint1_linear_313_60" x1="74.1909" y1="42" x2="74.714" y2="111" gradientUnits="userSpaceOnUse">
<stop stop-color="white"/>
<stop offset="1" stop-opacity="0"/>
</linearGradient>
</defs>
</svg>
