<svg width="134" height="76" viewBox="0 0 134 76" fill="none" xmlns="http://www.w3.org/2000/svg">
<path d="M13.7041 11.9649C15.1437 4.99762 21.2795 0 28.3939 0H104.254C111.249 0 117.316 4.83545 118.876 11.6547L130.799 63.7698C132.231 70.0311 127.474 76 121.051 76H12.7508C6.41437 76 1.67551 70.1819 2.95763 63.9766L13.7041 11.9649Z" fill="#01D0F9"/>
<mask id="mask0_38_206" style="mask-type:alpha" maskUnits="userSpaceOnUse" x="2" y="0" width="130" height="76">
<path d="M13.7041 11.9649C15.1437 4.99762 21.2795 0 28.3939 0H104.254C111.249 0 117.316 4.83545 118.876 11.6547L130.799 63.7698C132.231 70.0311 127.474 76 121.051 76H12.7508C6.41437 76 1.67551 70.1819 2.95763 63.9766L13.7041 11.9649Z" fill="#013AE6"/>
</mask>
<g mask="url(#mask0_38_206)">
<path d="M14.1173 98.3513C6.95071 89.9189 3.36743 79.1351 3.36743 66C3.36743 52.8649 6.95071 42.0811 14.1173 33.6486C21.2838 25.2162 29.9592 21 40.1432 21C50.3273 21 59.0026 25.2162 66.1692 33.6486C73.3357 42.0811 76.919 52.8649 76.919 66C76.919 79.1351 73.3357 89.9189 66.1692 98.3513C59.0026 106.784 50.3273 111 40.1432 111C29.9592 111 21.2838 106.784 14.1173 98.3513ZM23.3961 42.6486C19.0962 48.1622 16.9462 55.9459 16.9462 66C16.9462 76.0541 19.0962 83.8378 23.3961 89.3514C27.7715 94.8649 33.3538 97.6216 40.1432 97.6216C46.9326 97.6216 52.4773 94.8649 56.7772 89.3514C61.1526 83.8378 63.3403 76.0541 63.3403 66C63.3403 55.9459 61.1526 48.1622 56.7772 42.6486C52.4773 37.1351 46.9326 34.3784 40.1432 34.3784C33.3538 34.3784 27.7715 37.1351 23.3961 42.6486Z" fill="url(#paint0_linear_38_206)"/>
<path d="M85.998 80.5946C85.998 76.7027 86.7901 72.6486 88.3743 68.4324C90.0339 64.1351 91.6181 60.7703 93.1269 58.3378C94.7111 55.8243 96.861 52.7027 99.5768 48.973L117.682 23.4324H132.958L115.871 47.3919L110.892 52.0135V52.6216L113.156 51.7703C115.419 51.1216 117.87 50.7973 120.511 50.7973C127.904 50.7973 134.165 53.6757 139.295 59.4324C144.5 65.1081 147.102 72.1622 147.102 80.5946C147.102 89.1892 144.236 96.4054 138.503 102.243C132.769 108.081 125.452 111 116.55 111C107.649 111 100.331 108.081 94.5979 102.243C88.8647 96.4054 85.998 89.1892 85.998 80.5946ZM104.216 67.9459C101.123 71.1892 99.5768 75.4054 99.5768 80.5946C99.5768 85.7838 101.123 90.0405 104.216 93.3649C107.309 96.6081 111.42 98.2297 116.55 98.2297C121.68 98.2297 125.791 96.6081 128.884 93.3649C131.977 90.0405 133.524 85.7838 133.524 80.5946C133.524 75.4054 131.977 71.1892 128.884 67.9459C125.791 64.6216 121.68 62.9595 116.55 62.9595C111.42 62.9595 107.309 64.6216 104.216 67.9459Z" fill="url(#paint1_linear_38_206)"/>
</g>
<defs>
<linearGradient id="paint0_linear_38_206" x1="74.7526" y1="45.5" x2="75.2709" y2="111" gradientUnits="userSpaceOnUse">
<stop stop-color="white"/>
<stop offset="1" stop-opacity="0"/>
</linearGradient>
<linearGradient id="paint1_linear_38_206" x1="74.7526" y1="45.5" x2="75.2709" y2="111" gradientUnits="userSpaceOnUse">
<stop stop-color="white"/>
<stop offset="1" stop-opacity="0"/>
</linearGradient>
</defs>
</svg>
