<svg width="133" height="76" viewBox="0 0 133 76" fill="none" xmlns="http://www.w3.org/2000/svg">
<path d="M13.6959 11.9915C15.1249 5.01165 21.2665 0 28.3911 0H103.288C110.294 0 116.368 4.85058 117.917 11.6838L129.728 63.7892C131.147 70.0454 126.391 76 119.976 76H12.8465C6.51747 76 1.78028 70.1947 3.04965 63.9944L13.6959 11.9915Z" fill="#013AE6"/>
<mask id="mask0_309_58" style="mask-type:alpha" maskUnits="userSpaceOnUse" x="2" y="0" width="128" height="76">
<path d="M13.6959 11.9915C15.1249 5.01165 21.2665 0 28.3911 0H103.288C110.294 0 116.368 4.85058 117.917 11.6838L129.728 63.7892C131.147 70.0454 126.391 76 119.976 76H12.8465C6.51747 76 1.78028 70.1947 3.04965 63.9944L13.6959 11.9915Z" fill="#013AE6"/>
</mask>
<g mask="url(#mask0_309_58)">
<path d="M17.3538 98.3513C10.0025 89.9189 6.3269 79.1351 6.3269 66C6.3269 52.8649 10.0025 42.0811 17.3538 33.6486C24.705 25.2162 33.6039 21 44.0504 21C54.4969 21 63.3958 25.2162 70.7471 33.6486C78.0983 42.0811 81.774 52.8649 81.774 66C81.774 79.1351 78.0983 89.9189 70.7471 98.3513C63.3958 106.784 54.4969 111 44.0504 111C33.6039 111 24.705 106.784 17.3538 98.3513ZM26.8717 42.6486C22.461 48.1622 20.2556 55.9459 20.2556 66C20.2556 76.0541 22.461 83.8378 26.8717 89.3514C31.3598 94.8649 37.0861 97.6216 44.0504 97.6216C51.0148 97.6216 56.7023 94.8649 61.1131 89.3514C65.6012 83.8378 67.8453 76.0541 67.8453 66C67.8453 55.9459 65.6012 48.1622 61.1131 42.6486C56.7023 37.1351 51.0148 34.3784 44.0504 34.3784C37.0861 34.3784 31.3598 37.1351 26.8717 42.6486Z" fill="url(#paint0_linear_309_58)"/>
<path d="M89.9262 51.4054V35.5946L105.016 23.4324H117.203V108.568H103.855V40.4595L89.9262 51.4054Z" fill="url(#paint1_linear_309_58)"/>
</g>
<defs>
<linearGradient id="paint0_linear_309_58" x1="61.7651" y1="46.5" x2="61.7651" y2="111" gradientUnits="userSpaceOnUse">
<stop stop-color="white"/>
<stop offset="1" stop-opacity="0"/>
</linearGradient>
<linearGradient id="paint1_linear_309_58" x1="61.7651" y1="46.5" x2="61.7651" y2="111" gradientUnits="userSpaceOnUse">
<stop stop-color="white"/>
<stop offset="1" stop-opacity="0"/>
</linearGradient>
</defs>
</svg>
