<svg width="134" height="76" viewBox="0 0 134 76" fill="none" xmlns="http://www.w3.org/2000/svg">
<path d="M13.7041 11.9649C15.1437 4.99762 21.2795 0 28.3939 0H104.254C111.249 0 117.316 4.83545 118.876 11.6547L130.799 63.7698C132.231 70.0311 127.474 76 121.051 76H12.7508C6.41437 76 1.67551 70.1819 2.95763 63.9766L13.7041 11.9649Z" fill="#FB5775"/>
<mask id="mask0_38_205" style="mask-type:alpha" maskUnits="userSpaceOnUse" x="2" y="0" width="130" height="76">
<path d="M13.7041 11.9649C15.1437 4.99762 21.2795 0 28.3939 0H104.254C111.249 0 117.316 4.83545 118.876 11.6547L130.799 63.7698C132.231 70.0311 127.474 76 121.051 76H12.7508C6.41437 76 1.67551 70.1819 2.95763 63.9766L13.7041 11.9649Z" fill="#013AE6"/>
</mask>
<g mask="url(#mask0_38_205)">
<path d="M14.0751 98.3513C6.93666 89.9189 3.36743 79.1351 3.36743 66C3.36743 52.8649 6.93666 42.0811 14.0751 33.6486C21.2136 25.2162 29.8549 21 39.999 21C50.1432 21 58.7845 25.2162 65.9229 33.6486C73.0614 42.0811 76.6306 52.8649 76.6306 66C76.6306 79.1351 73.0614 89.9189 65.9229 98.3513C58.7845 106.784 50.1432 111 39.999 111C29.8549 111 21.2136 106.784 14.0751 98.3513ZM23.3176 42.6486C19.0345 48.1622 16.8929 55.9459 16.8929 66C16.8929 76.0541 19.0345 83.8378 23.3176 89.3514C27.6758 94.8649 33.2363 97.6216 39.999 97.6216C46.7618 97.6216 52.2847 94.8649 56.5678 89.3514C60.926 83.8378 63.1051 76.0541 63.1051 66C63.1051 55.9459 60.926 48.1622 56.5678 42.6486C52.2847 37.1351 46.7618 34.3784 39.999 34.3784C33.2363 34.3784 27.6758 37.1351 23.3176 42.6486Z" fill="url(#paint0_linear_38_205)"/>
<path d="M86.2376 84.8514H99.7631C100.364 87.3649 101.379 89.5135 102.806 91.2973C106.113 95.5135 110.922 97.6216 117.234 97.6216C122.268 97.6216 126.251 96.1622 129.181 93.2432C132.112 90.3243 133.577 86.5135 133.577 81.8108C133.577 76.8649 132.112 72.8919 129.181 69.8919C126.251 66.8919 122.268 65.3919 117.234 65.3919C112.575 65.3919 108.63 66.7297 105.399 69.4054C104.121 70.4595 102.994 71.7568 102.017 73.2973H89.619L93.0004 23.4324H140.903V36.8108H103.708L102.017 58.7027H102.581C103.783 57.4054 105.173 56.3108 106.751 55.4189C110.283 53.1487 114.528 52.0135 119.488 52.0135C127.378 52.0135 133.953 54.8513 139.213 60.527C144.472 66.2027 147.102 73.2973 147.102 81.8108C147.102 90.1622 144.322 97.1351 138.762 102.73C133.276 108.243 126.1 111 117.234 111C105.662 111 97.058 106.662 91.4224 97.9865C89.0179 94.1757 87.2896 89.7973 86.2376 84.8514Z" fill="url(#paint1_linear_38_205)"/>
</g>
<defs>
<linearGradient id="paint0_linear_38_205" x1="74.7526" y1="45" x2="75.2709" y2="111" gradientUnits="userSpaceOnUse">
<stop stop-color="white"/>
<stop offset="1" stop-opacity="0"/>
</linearGradient>
<linearGradient id="paint1_linear_38_205" x1="74.7526" y1="45" x2="75.2709" y2="111" gradientUnits="userSpaceOnUse">
<stop stop-color="white"/>
<stop offset="1" stop-opacity="0"/>
</linearGradient>
</defs>
</svg>
