<svg width="98" height="98" viewBox="0 0 98 98" fill="none" xmlns="http://www.w3.org/2000/svg">
<path d="M49.3211 8.22536L58.1808 16.2327L69.857 13.7221L73.5258 25.0859L84.8943 28.7481L82.3889 40.4266L90.4018 49.2808L82.3945 58.1406L84.9051 69.8167L73.5413 73.4856L69.8791 84.854L58.2006 82.3486L49.3464 90.3616L40.4866 82.3543L28.8105 84.8648L25.1417 73.501L13.7732 69.8388L16.2786 58.1604L8.2656 49.3061L16.2729 40.4464L13.7624 28.7702L25.1262 25.1014L28.7884 13.733L40.4668 16.2383L49.3211 8.22536Z" fill="#B9FF66"/>
<path d="M48.0782 66.9714L30.1262 55.9537L33.405 49.9064L45.5829 57.3829L60.543 30.7742L66.353 34.4666L48.0782 66.9714Z" fill="#1D202C"/>
</svg>
