<svg width="19" height="16" viewBox="0 0 19 16" fill="none" xmlns="http://www.w3.org/2000/svg">
<path d="M12.8334 1.3898C14.0682 2.00343 14.9167 3.27762 14.9167 4.75C14.9167 6.22238 14.0682 7.49657 12.8334 8.1102M14.5001 12.472C15.7596 13.0419 16.8938 13.9708 17.8334 15.1667M1.16675 15.1667C2.78882 13.1021 4.99106 11.8333 7.41675 11.8333C9.84243 11.8333 12.0447 13.1021 13.6667 15.1667M11.1667 4.75C11.1667 6.82107 9.48782 8.5 7.41675 8.5C5.34568 8.5 3.66675 6.82107 3.66675 4.75C3.66675 2.67893 5.34568 1 7.41675 1C9.48782 1 11.1667 2.67893 11.1667 4.75Z" stroke="white" stroke-width="1.5" stroke-linecap="round" stroke-linejoin="round"/>
</svg>
