<svg width="16" height="17" viewBox="0 0 16 17" fill="none" xmlns="http://www.w3.org/2000/svg">
<path d="M5 9.16667C4.40666 9.16667 3.82664 8.99072 3.33329 8.66108C2.83994 8.33143 2.45542 7.8629 2.22836 7.31472C2.0013 6.76654 1.94189 6.16334 2.05764 5.5814C2.1734 4.99945 2.45912 4.46491 2.87868 4.04535C3.29824 3.62579 3.83279 3.34007 4.41473 3.22431C4.99667 3.10856 5.59987 3.16797 6.14805 3.39503C6.69623 3.62209 7.16476 4.00661 7.49441 4.49996C7.82405 4.9933 8 5.57332 8 6.16667C7.99912 6.96205 7.68276 7.7246 7.12035 8.28701C6.55793 8.84943 5.79538 9.16579 5 9.16667ZM5 4.5C4.67036 4.5 4.34813 4.59775 4.07405 4.78089C3.79997 4.96402 3.58635 5.22432 3.4602 5.52886C3.33405 5.83341 3.30105 6.16852 3.36536 6.49182C3.42967 6.81512 3.5884 7.11209 3.82149 7.34518C4.05458 7.57827 4.35155 7.737 4.67485 7.80131C4.99815 7.86562 5.33326 7.83261 5.63781 7.70647C5.94235 7.58032 6.20265 7.3667 6.38578 7.09262C6.56892 6.81854 6.66667 6.4963 6.66667 6.16667C6.66667 5.72464 6.49107 5.30072 6.17851 4.98816C5.86595 4.6756 5.44203 4.5 5 4.5ZM10 15.8333V15.5C10 14.1739 9.47322 12.9021 8.53553 11.9645C7.59785 11.0268 6.32608 10.5 5 10.5C3.67392 10.5 2.40215 11.0268 1.46447 11.9645C0.526784 12.9021 0 14.1739 0 15.5L0 15.8333C0 16.0101 0.0702379 16.1797 0.195262 16.3047C0.320286 16.4298 0.489856 16.5 0.666667 16.5C0.843478 16.5 1.01305 16.4298 1.13807 16.3047C1.2631 16.1797 1.33333 16.0101 1.33333 15.8333V15.5C1.33333 14.5275 1.71964 13.5949 2.40728 12.9073C3.09491 12.2196 4.02754 11.8333 5 11.8333C5.97246 11.8333 6.90509 12.2196 7.59273 12.9073C8.28036 13.5949 8.66667 14.5275 8.66667 15.5V15.8333C8.66667 16.0101 8.73691 16.1797 8.86193 16.3047C8.98695 16.4298 9.15652 16.5 9.33333 16.5C9.51014 16.5 9.67971 16.4298 9.80474 16.3047C9.92976 16.1797 10 16.0101 10 15.8333ZM16 12.5C16 11.5991 15.7392 10.7175 15.2491 9.96158C14.7591 9.20565 14.0607 8.60772 13.2383 8.23998C12.4159 7.87223 11.5046 7.75039 10.6145 7.88916C9.72437 8.02793 8.89344 8.42137 8.222 9.022C8.15584 9.08013 8.10186 9.1508 8.06317 9.22991C8.02448 9.30903 8.00185 9.39502 7.99659 9.48293C7.99132 9.57085 8.00353 9.65893 8.0325 9.74209C8.06147 9.82526 8.10663 9.90186 8.16537 9.96748C8.22412 10.0331 8.29528 10.0864 8.37475 10.1244C8.45422 10.1623 8.54042 10.1842 8.62838 10.1886C8.71633 10.1931 8.8043 10.18 8.88719 10.1503C8.97009 10.1206 9.04627 10.0747 9.11133 10.0153C9.59097 9.58641 10.1845 9.30548 10.8203 9.20644C11.456 9.1074 12.1069 9.19449 12.6943 9.4572C13.2816 9.71991 13.7804 10.147 14.1304 10.6869C14.4804 11.2269 14.6667 11.8566 14.6667 12.5C14.6667 12.6768 14.7369 12.8464 14.8619 12.9714C14.987 13.0964 15.1565 13.1667 15.3333 13.1667C15.5101 13.1667 15.6797 13.0964 15.8047 12.9714C15.9298 12.8464 16 12.6768 16 12.5ZM11.6667 6.5C11.0733 6.5 10.4933 6.32405 9.99996 5.99441C9.50661 5.66477 9.12209 5.19623 8.89503 4.64805C8.66796 4.09987 8.60855 3.49667 8.72431 2.91473C8.84007 2.33279 9.12579 1.79824 9.54535 1.37868C9.9649 0.959123 10.4995 0.673401 11.0814 0.557646C11.6633 0.44189 12.2665 0.5013 12.8147 0.728363C13.3629 0.955426 13.8314 1.33994 14.1611 1.83329C14.4907 2.32664 14.6667 2.90666 14.6667 3.5C14.6658 4.29538 14.3494 5.05793 13.787 5.62035C13.2246 6.18277 12.462 6.49912 11.6667 6.5ZM11.6667 1.83333C11.337 1.83333 11.0148 1.93108 10.7407 2.11422C10.4666 2.29735 10.253 2.55765 10.1269 2.8622C10.0007 3.16674 9.96772 3.50185 10.032 3.82515C10.0963 4.14845 10.2551 4.44543 10.4882 4.67851C10.7212 4.9116 11.0182 5.07033 11.3415 5.13464C11.6648 5.19895 11.9999 5.16595 12.3045 5.0398C12.609 4.91365 12.8693 4.70003 13.0525 4.42595C13.2356 4.15187 13.3333 3.82964 13.3333 3.5C13.3333 3.05797 13.1577 2.63405 12.8452 2.32149C12.5326 2.00893 12.1087 1.83333 11.6667 1.83333Z" fill="#555555"/>
</svg>
