<svg width="40" height="40" viewBox="0 0 40 40" fill="none" xmlns="http://www.w3.org/2000/svg">
<path fill-rule="evenodd" clip-rule="evenodd" d="M20 4.04494C11.1883 4.04494 4.04494 11.1883 4.04494 20C4.04494 28.8117 11.1883 35.9551 20 35.9551C28.8117 35.9551 35.9551 28.8117 35.9551 20C35.9551 11.1883 28.8117 4.04494 20 4.04494ZM0 20C0 8.9543 8.9543 0 20 0C31.0457 0 40 8.9543 40 20C40 31.0457 31.0457 40 20 40C8.9543 40 0 31.0457 0 20Z" fill="#B9FF66"/>
<path fill-rule="evenodd" clip-rule="evenodd" d="M22.3183 17.9725C21.4523 17.2671 21.322 15.9932 22.0273 15.1271C23.0715 13.8451 24.5931 13.0155 26.2922 13.0155C28.0114 13.0155 29.4878 13.8619 30.5333 15.0986C31.2544 15.9516 31.1475 17.2277 30.2945 17.9488C29.4414 18.6699 28.1654 18.563 27.4443 17.71C27.0156 17.2028 26.6043 17.0605 26.2922 17.0605C25.9597 17.0605 25.5398 17.2197 25.1637 17.6815C24.4583 18.5475 23.1844 18.6778 22.3183 17.9725ZM9.73407 17.9725C8.86799 17.2671 8.7377 15.9932 9.44307 15.1271C10.4872 13.8451 12.0089 13.0155 13.7079 13.0155C15.4272 13.0155 16.9036 13.8619 17.949 15.0986C18.6702 15.9516 18.5632 17.2277 17.7102 17.9488C16.8572 18.6699 15.5811 18.563 14.86 17.71C14.4313 17.2029 14.0201 17.0605 13.7079 17.0605C13.3754 17.0605 12.9555 17.2197 12.5794 17.6815C11.8741 18.5475 10.6002 18.6778 9.73407 17.9725Z" fill="#B9FF66"/>
<path fill-rule="evenodd" clip-rule="evenodd" d="M26.4705 27.029C25.0112 28.0903 22.8045 29.2136 20 29.2136C17.1956 29.2136 14.9889 28.0903 13.5296 27.029C12.796 26.4955 12.2289 25.9622 11.8404 25.5567C11.6453 25.3532 11.4928 25.1793 11.3845 25.0503C11.3303 24.9857 11.2869 24.9321 11.2547 24.8913L11.2145 24.84L11.2007 24.8219L11.1953 24.8148L11.1931 24.8118C11.1931 24.8118 11.1911 24.8091 12.6846 23.6889L11.191 24.8091C10.5208 23.9155 10.7019 22.6478 11.5955 21.9776C12.4861 21.3097 13.7482 21.4873 14.4201 22.373C14.4201 22.373 14.4232 22.377 14.4261 22.3806C14.4355 22.3925 14.4545 22.4162 14.4828 22.4499C14.5396 22.5175 14.6329 22.6245 14.7608 22.758C15.0183 23.0268 15.4063 23.3923 15.9087 23.7577C16.9213 24.4941 18.3101 25.1686 20 25.1686C21.69 25.1686 23.0788 24.4941 24.0914 23.7577C24.5938 23.3923 24.9817 23.0268 25.2393 22.758C25.3672 22.6245 25.4605 22.5175 25.5172 22.4499C25.5455 22.4162 25.5645 22.3925 25.5739 22.3806L25.5764 22.3777L25.5799 22.373C26.2518 21.4873 27.514 21.3097 28.4045 21.9776C29.2981 22.6478 29.4792 23.9155 28.809 24.8091L27.2864 23.6671C28.809 24.8091 28.809 24.8091 28.809 24.8091L28.807 24.8118L28.8047 24.8148L28.7993 24.8219L28.7855 24.84L28.7454 24.8913C28.7131 24.9321 28.6698 24.9857 28.6155 25.0503C28.5073 25.1793 28.3548 25.3532 28.1597 25.5567C27.7711 25.9622 27.204 26.4955 26.4705 27.029Z" fill="#B9FF66"/>
</svg>
