<svg width="34" height="34" viewBox="0 0 34 34" fill="none" xmlns="http://www.w3.org/2000/svg">
<rect width="34" height="34" rx="17" fill="white"/>
<g clip-path="url(#clip0_192_77)">
<path d="M18.1471 14.2639C17.7178 14.57 17.1924 14.75 16.625 14.75C15.1753 14.75 14 13.5747 14 12.125C14 10.6753 15.1753 9.5 16.625 9.5C17.5647 9.5 18.3891 9.99381 18.8529 10.7361M12.5 23.0654H14.4577C14.713 23.0654 14.9667 23.0957 15.2141 23.1565L17.2827 23.6592C17.7315 23.7685 18.1991 23.7791 18.6526 23.6911L20.9397 23.2461C21.5439 23.1284 22.0997 22.8391 22.5353 22.4154L24.1534 20.8413C24.6155 20.3925 24.6155 19.6643 24.1534 19.2148C23.7374 18.8101 23.0785 18.7645 22.6078 19.1077L20.7219 20.4836C20.4519 20.6811 20.1232 20.7874 19.7852 20.7874H17.9641L19.1233 20.7873C19.7767 20.7873 20.3059 20.2725 20.3059 19.6369V19.4069C20.3059 18.8791 19.9367 18.419 19.4106 18.2914L17.6214 17.8563C17.3303 17.7857 17.0321 17.75 16.7324 17.75C16.0087 17.75 14.6989 18.3491 14.6989 18.3491L12.5 19.2687M23 12.875C23 14.3247 21.8247 15.5 20.375 15.5C18.9253 15.5 17.75 14.3247 17.75 12.875C17.75 11.4253 18.9253 10.25 20.375 10.25C21.8247 10.25 23 11.4253 23 12.875ZM9.5 18.95L9.5 23.3C9.5 23.72 9.5 23.9301 9.58175 24.0905C9.65365 24.2316 9.76839 24.3463 9.90951 24.4183C10.0699 24.5 10.28 24.5 10.7 24.5H11.3C11.72 24.5 11.9301 24.5 12.0905 24.4183C12.2316 24.3463 12.3463 24.2316 12.4183 24.0905C12.5 23.9301 12.5 23.72 12.5 23.3V18.95C12.5 18.53 12.5 18.3199 12.4183 18.1595C12.3463 18.0184 12.2316 17.9037 12.0905 17.8317C11.9301 17.75 11.72 17.75 11.3 17.75L10.7 17.75C10.28 17.75 10.0699 17.75 9.90951 17.8317C9.76839 17.9037 9.65365 18.0184 9.58175 18.1595C9.5 18.3199 9.5 18.53 9.5 18.95Z" stroke="#1D202C" stroke-width="1.5" stroke-linecap="round" stroke-linejoin="round"/>
</g>
<defs>
<clipPath id="clip0_192_77">
<rect width="18" height="18" fill="white" transform="translate(8 8)"/>
</clipPath>
</defs>
</svg>
