<svg width="34" height="34" viewBox="0 0 34 34" fill="none" xmlns="http://www.w3.org/2000/svg">
<rect width="34" height="34" rx="17" fill="white"/>
<g clip-path="url(#clip0_192_65)">
<path d="M14 18.5C14 18.5 15.125 20 17 20C18.875 20 20 18.5 20 18.5M20.75 14.93C20.4537 15.2937 20.0487 15.5 19.625 15.5C19.2013 15.5 18.8075 15.2937 18.5 14.93M15.5 14.93C15.2037 15.2937 14.7987 15.5 14.375 15.5C13.9513 15.5 13.5575 15.2937 13.25 14.93M24.5 17C24.5 21.1421 21.1421 24.5 17 24.5C12.8579 24.5 9.5 21.1421 9.5 17C9.5 12.8579 12.8579 9.5 17 9.5C21.1421 9.5 24.5 12.8579 24.5 17Z" stroke="#1D202C" stroke-width="1.5" stroke-linecap="round" stroke-linejoin="round"/>
</g>
<defs>
<clipPath id="clip0_192_65">
<rect width="18" height="18" fill="white" transform="translate(8 8)"/>
</clipPath>
</defs>
</svg>
