<svg width="22" height="20" fill="none" xmlns="http://www.w3.org/2000/svg"><path d="m21.053 17.36-2.448 1.656-2.76-3.552c-1.792 1.28-3.976 1.92-6.552 1.92-2.528 0-4.552-.56-6.072-1.68C1.7 14.568.94 12.984.94 10.952c0-1.584.472-2.808 1.416-3.672.96-.88 2.088-1.32 3.384-1.32 1.248 0 2.28.456 3.096 1.368v-.792L4.925 1.544 4.9.08h12.912v2.688H9.149l6.816 8.352c.88-1.536 1.32-3.432 1.32-5.688h3.072c0 3.248-.816 5.936-2.448 8.064l3.144 3.864Zm-11.76-2.664c1.92 0 3.52-.48 4.8-1.44l-2.184-2.808c-.704-.912-1.4-1.56-2.088-1.944-.672-.384-1.456-.576-2.352-.576-1.008 0-1.832.28-2.472.84-.64.544-.96 1.304-.96 2.28 0 1.184.456 2.088 1.368 2.712.912.624 2.208.936 3.888.936Z" fill="#013AE6"/></svg>