<svg width="19" height="15" fill="none" xmlns="http://www.w3.org/2000/svg"><path d="M17.833 4.943c0-.505 0-.757-.1-.874a.417.417 0 0 0-.349-.145c-.153.012-.332.19-.689.548L13.667 7.5l3.028 3.029c.357.357.536.535.69.547a.417.417 0 0 0 .349-.144c.1-.117.1-.37.1-.875V4.943Zm-16.666.724c0-1.4 0-2.1.272-2.635a2.5 2.5 0 0 1 1.093-1.093c.535-.272 1.235-.272 2.635-.272h4.5c1.4 0 2.1 0 2.635.272a2.5 2.5 0 0 1 1.092 1.093c.273.535.273 1.235.273 2.635v3.667c0 1.4 0 2.1-.273 2.635a2.5 2.5 0 0 1-1.092 1.092c-.535.273-1.235.273-2.635.273h-4.5c-1.4 0-2.1 0-2.635-.273a2.5 2.5 0 0 1-1.093-1.092c-.272-.535-.272-1.235-.272-2.635V5.667Z" stroke="#fff" stroke-width="1.5" stroke-linecap="round" stroke-linejoin="round"/></svg>