<svg width="133" height="76" fill="none" xmlns="http://www.w3.org/2000/svg"><path d="M13.696 11.992A15 15 0 0 1 28.39 0h74.897a15 15 0 0 1 14.629 11.684l11.811 52.105c1.42 6.256-3.336 12.211-9.751 12.211H12.846C6.518 76 1.78 70.195 3.05 63.994l10.646-52.002Z" fill="#B9FF66"/><mask id="a" style="mask-type:alpha" maskUnits="userSpaceOnUse" x="2" y="0" width="128" height="76"><path d="M13.696 11.992A15 15 0 0 1 28.39 0h74.897a15 15 0 0 1 14.629 11.684l11.811 52.105c1.42 6.256-3.336 12.211-9.751 12.211H12.846C6.518 76 1.78 70.195 3.05 63.994l10.646-52.002Z" fill="#013AE6"/></mask><g mask="url(#a)"><path d="M11.59 98.351C4.257 89.92.591 79.135.591 66c0-13.135 3.666-23.919 10.997-32.351C18.921 25.216 27.797 21 38.216 21s19.294 4.216 26.626 12.649C72.174 42.08 75.839 52.865 75.839 66c0 13.135-3.665 23.919-10.997 32.351C57.51 106.784 48.635 111 38.216 111c-10.42 0-19.295-4.216-26.627-12.649Zm9.492-55.702C16.683 48.162 14.484 55.946 14.484 66c0 10.054 2.2 17.838 6.598 23.351 4.477 5.514 10.188 8.27 17.134 8.27 6.945 0 12.618-2.756 17.017-8.27C59.71 83.838 61.948 76.054 61.948 66c0-10.054-2.239-17.838-6.715-23.351-4.399-5.514-10.072-8.27-17.017-8.27-6.946 0-12.657 2.756-17.134 8.27Z" fill="url(#b)"/><path d="M84.549 108.568V95.189l27.668-20.554c6.02-4.54 10.342-8.757 12.966-12.649 2.624-3.891 3.936-8.026 3.936-12.405 0-4.622-1.351-8.31-4.052-11.068-2.701-2.756-6.367-4.135-10.998-4.135-5.711 0-9.994 2.433-12.85 7.298-1.235 2.108-2.16 4.54-2.778 7.297H84.549c.694-5.19 2.2-9.851 4.515-13.986C94.544 25.662 102.878 21 114.069 21c8.567 0 15.513 2.676 20.838 8.027 5.402 5.27 8.104 11.919 8.104 19.946 0 6.973-1.698 13.257-5.094 18.851-3.396 5.514-8.837 10.987-16.323 16.42l-11.577 8.513-5.209 2.432v.608l6.946-.608h31.257v13.379H84.549Z" fill="url(#c)"/></g><defs><linearGradient id="b" x1="71.323" y1="42" x2="71.846" y2="111" gradientUnits="userSpaceOnUse"><stop stop-color="#fff"/><stop offset="1" stop-opacity="0"/></linearGradient><linearGradient id="c" x1="71.323" y1="42" x2="71.846" y2="111" gradientUnits="userSpaceOnUse"><stop stop-color="#fff"/><stop offset="1" stop-opacity="0"/></linearGradient></defs></svg>