<svg width="134" height="76" fill="none" xmlns="http://www.w3.org/2000/svg"><path d="M13.704 11.965A15 15 0 0 1 28.394 0h75.86a15 15 0 0 1 14.622 11.655l11.923 52.115c1.432 6.261-3.325 12.23-9.748 12.23h-108.3c-6.337 0-11.075-5.818-9.793-12.023l10.746-52.012Z" fill="#FB5775"/><mask id="a" style="mask-type:alpha" maskUnits="userSpaceOnUse" x="2" y="0" width="130" height="76"><path d="M13.704 11.965A15 15 0 0 1 28.394 0h75.86a15 15 0 0 1 14.622 11.655l11.923 52.115c1.432 6.261-3.325 12.23-9.748 12.23h-108.3c-6.337 0-11.075-5.818-9.793-12.023l10.746-52.012Z" fill="#013AE6"/></mask><g mask="url(#a)"><path d="M14.075 98.351C6.937 89.92 3.367 79.135 3.367 66c0-13.135 3.57-23.919 10.708-32.351C21.214 25.216 29.855 21 40 21s18.785 4.216 25.924 12.649C73.06 42.08 76.63 52.865 76.63 66c0 13.135-3.57 23.919-10.708 32.351C58.784 106.784 50.143 111 39.999 111s-18.785-4.216-25.924-12.649Zm9.243-55.702C19.034 48.162 16.893 55.946 16.893 66c0 10.054 2.142 17.838 6.425 23.351 4.358 5.514 9.918 8.27 16.681 8.27 6.763 0 12.286-2.756 16.569-8.27 4.358-5.513 6.537-13.297 6.537-23.351 0-10.054-2.179-17.838-6.537-23.351-4.283-5.514-9.806-8.27-16.569-8.27s-12.323 2.756-16.681 8.27Z" fill="url(#b)"/><path d="M86.238 84.851h13.525c.601 2.514 1.616 4.662 3.043 6.446 3.307 4.216 8.116 6.325 14.428 6.325 5.034 0 9.017-1.46 11.947-4.379 2.931-2.919 4.396-6.73 4.396-11.432 0-4.946-1.465-8.92-4.396-11.92-2.93-3-6.913-4.5-11.947-4.5-4.659 0-8.604 1.339-11.835 4.014-1.278 1.055-2.405 2.352-3.382 3.892H89.619L93 23.432h47.903v13.379h-37.195l-1.691 21.892h.564a17.142 17.142 0 0 1 4.17-3.284c3.532-2.27 7.777-3.405 12.737-3.405 7.89 0 14.465 2.837 19.725 8.513 5.259 5.676 7.889 12.77 7.889 21.284 0 8.351-2.78 15.324-8.34 20.919-5.486 5.513-12.662 8.27-21.528 8.27-11.572 0-20.176-4.338-25.812-13.013-2.404-3.811-4.132-8.19-5.184-13.136Z" fill="url(#c)"/></g><defs><linearGradient id="b" x1="74.753" y1="45" x2="75.271" y2="111" gradientUnits="userSpaceOnUse"><stop stop-color="#fff"/><stop offset="1" stop-opacity="0"/></linearGradient><linearGradient id="c" x1="74.753" y1="45" x2="75.271" y2="111" gradientUnits="userSpaceOnUse"><stop stop-color="#fff"/><stop offset="1" stop-opacity="0"/></linearGradient></defs></svg>