<svg width="133" height="76" fill="none" xmlns="http://www.w3.org/2000/svg"><path d="M13.696 11.992A15 15 0 0 1 28.39 0h74.897a15 15 0 0 1 14.629 11.684l11.811 52.105c1.42 6.256-3.336 12.211-9.751 12.211H12.846C6.518 76 1.78 70.195 3.05 63.994l10.646-52.002Z" fill="#C97BFE"/><mask id="a" style="mask-type:alpha" maskUnits="userSpaceOnUse" x="2" y="0" width="128" height="76"><path d="M13.696 11.992A15 15 0 0 1 28.39 0h74.897a15 15 0 0 1 14.629 11.684l11.811 52.105c1.42 6.256-3.336 12.211-9.751 12.211H12.846C6.518 76 1.78 70.195 3.05 63.994l10.646-52.002Z" fill="#013AE6"/></mask><g mask="url(#a)"><path d="M14.153 98.351C7.024 89.92 3.459 79.135 3.459 66c0-13.135 3.565-23.919 10.694-32.351C21.282 25.216 29.912 21 40.043 21c10.13 0 18.76 4.216 25.889 12.649C73.061 42.08 76.626 52.865 76.626 66c0 13.135-3.565 23.919-10.694 32.351C58.803 106.784 50.173 111 40.042 111c-10.13 0-18.76-4.216-25.889-12.649Zm9.23-55.702C19.106 48.162 16.967 55.946 16.967 66c0 10.054 2.139 17.838 6.416 23.351 4.353 5.514 9.906 8.27 16.66 8.27 6.753 0 12.269-2.756 16.546-8.27 4.353-5.513 6.529-13.297 6.529-23.351 0-10.054-2.176-17.838-6.529-23.351-4.277-5.514-9.793-8.27-16.547-8.27-6.753 0-12.306 2.756-16.659 8.27Z" fill="url(#b)"/><path d="M85.094 84.243h13.508c.525 2.514 1.538 4.744 3.039 6.69 3.377 4.459 8.179 6.689 14.408 6.689 5.178 0 9.268-1.379 12.269-4.135 3.077-2.838 4.615-6.325 4.615-10.46 0-4.703-1.388-8.392-4.164-11.067-2.702-2.757-6.567-4.136-11.594-4.136H98.039V55.662l23.638-18.243v-.608H89.034V23.432h51.779V36.69l-20.261 15.933-5.629 2.432v.608l1.801-.243c2.477-.243 3.94-.365 4.39-.365 7.054 0 12.945 2.635 17.673 7.905 4.727 5.27 7.091 11.96 7.091 20.068 0 7.784-2.776 14.392-8.329 19.824-5.554 5.433-12.72 8.149-21.5 8.149-11.632 0-20.224-4.459-25.777-13.378-2.401-3.811-4.127-8.27-5.178-13.379Z" fill="url(#c)"/></g><defs><linearGradient id="b" x1="74.191" y1="42" x2="74.714" y2="111" gradientUnits="userSpaceOnUse"><stop stop-color="#fff"/><stop offset="1" stop-opacity="0"/></linearGradient><linearGradient id="c" x1="74.191" y1="42" x2="74.714" y2="111" gradientUnits="userSpaceOnUse"><stop stop-color="#fff"/><stop offset="1" stop-opacity="0"/></linearGradient></defs></svg>