<svg width="136" height="233" fill="none" xmlns="http://www.w3.org/2000/svg"><rect x="26" width="90" height="233" rx="15" fill="#282828"/><g filter="url(#a)" clip-path="url(#b)"><path d="m56.7 116.677-45.017 14.627c-6.21 2.018-9.615 8.704-7.598 14.91l10.969 33.759c2.016 6.206 8.7 9.614 14.91 7.597l8.227-2.673 13.5 5.485c2.673 1.172 5.893.129 7.406-2.462l7.86-12.37 8.024-2.607c6.207-2.017 9.614-8.704 7.598-14.91l-10.97-33.759c-2.016-6.206-8.703-9.613-14.91-7.597Z" fill="#fff" fill-opacity=".2"/></g><g clip-path="url(#c)"><path d="M127.188 47.191 94.99 38.564c-4.44-1.19-9.03 1.505-10.236 6.007L78.19 69.06c-1.206 4.503 1.42 9.131 5.862 10.321l5.884 1.577 5.845 8.509c1.124 1.736 3.426 2.355 5.318 1.386l9.411-4.382 5.74 1.538c4.439 1.19 9.03-1.505 10.236-6.007l6.563-24.491c1.206-4.502-1.423-9.131-5.862-10.32Z" fill="#B9FF66"/></g><defs><clipPath id="b"><path fill="#fff" transform="scale(1 -1) rotate(18 648.689 -31.549)" d="M0 0h71v71H0z"/></clipPath><clipPath id="c"><path fill="#fff" transform="scale(1 -1) rotate(-15 -285.82 -323.543)" d="M0 0h50v50H0z"/></clipPath><filter id="a" x="-66.496" y="46.097" width="219.655" height="214.764" filterUnits="userSpaceOnUse" color-interpolation-filters="sRGB"><feFlood flood-opacity="0" result="BackgroundImageFix"/><feGaussianBlur in="BackgroundImageFix" stdDeviation="35"/><feComposite in2="SourceAlpha" operator="in" result="effect1_backgroundBlur_307_65"/><feBlend in="SourceGraphic" in2="effect1_backgroundBlur_307_65" result="shape"/></filter></defs></svg>