<svg width="146" height="40" fill="none" xmlns="http://www.w3.org/2000/svg"><path d="M80.58 14.768c-.63-.55-1.427-.841-2.286-.947-1.739-.214-3.729.332-5.085 1.031-.628.324-1.381.777-2.064 1.324v-.075a2.592 2.592 0 0 0-2.595-2.588 2.592 2.592 0 0 0-2.596 2.588v21.31a2.592 2.592 0 0 0 2.596 2.59 2.592 2.592 0 0 0 2.595-2.59V20.986c2.04-1.71 4.286-2.63 7.175-2.512 1.207.049 2.57-.157 2.998-1.47.257-.79-.112-1.688-.739-2.236Zm64.598 0c-.629-.55-1.426-.841-2.285-.947-1.738-.214-3.729.332-5.085 1.031a12.67 12.67 0 0 0-2.064 1.324v-.075a2.592 2.592 0 0 0-2.595-2.588 2.593 2.593 0 0 0-2.596 2.588v21.31a2.593 2.593 0 0 0 2.596 2.59 2.592 2.592 0 0 0 2.595-2.59V20.986c2.039-1.71 4.286-2.63 7.176-2.512 1.206.049 2.569-.157 2.997-1.47.257-.79-.111-1.688-.739-2.236Zm-85.52 9.042v12.87c0 1.425-1.061 2.604-2.37 2.604-1.31 0-2.371-1.18-2.371-2.604v-1.486c-1.558 2.886-4.267 4.335-7.405 4.335-4.154 0-7.992-2.554-7.992-7.761 0-5.06 4.11-7.959 9.527-7.959 1.897 0 3.748.393 5.87 1.277v-.983c0-3.537-1.535-5.453-5.69-5.453-1.974 0-3.532.578-4.436 1.007-.813.393-1.264.639-2.009.639-.914 0-1.84-.762-1.84-2.125 0-.884.44-1.768 1.704-2.431 1.558-.811 4.346-1.757 7.506-1.757 6.64 0 9.506 3.047 9.506 9.826Zm-4.741 4.764c-1.851-.934-3.702-1.327-5.373-1.327-3.567 0-5.282 1.475-5.282 4.176 0 2.653 1.625 3.93 4.154 3.93 3.476 0 6.501-2.358 6.501-6.779ZM84.34 14.543V10.01c0-1.42 1.136-2.572 2.538-2.572s2.538 1.152 2.538 2.572v4.533h6.223c1.269 0 2.296 1.04 2.296 2.327 0 1.285-1.027 2.327-2.296 2.327h-6.223V30.17c0 3.185 1.813 4.458 4.084 4.458a8.49 8.49 0 0 0 2.019-.27c.604-.17.93-.195 1.135-.195 1.282 0 2.187.906 2.187 2.192 0 1.14-.64 2.033-1.945 2.511-1.075.393-2.574.662-4.12.662-3.819 0-8.435-1.96-8.435-8.573V19.197m38.102 8.293h-16.157c.545 4.102 3.548 7.023 8.884 7.023 1.85 0 3.649-.338 5.461-1.04a2.72 2.72 0 0 1 .912-.163 2.454 2.454 0 0 1 2.472 2.445 2.454 2.454 0 0 1-1.47 2.245c-2.281.99-4.828 1.53-7.527 1.53-8.921 0-14.244-5.77-14.244-13.092 0-7.224 5.171-12.993 13.129-12.993 7.046 0 11.608 4.515 11.608 11.362-.001 1.869-1.167 2.684-3.068 2.684Zm-2.318-3.698c0-3.988-3.637-5.831-6.4-5.831-3.751 0-6.45 2.27-7.261 5.768l13.661.063Zm-86.933.543a2.355 2.355 0 0 0-2.359 2.353c0 .829-.13 1.644-.383 2.424-1.086 3.323-4.218 5.554-7.795 5.554-4.51 0-8.178-3.578-8.178-7.978s3.669-7.979 8.178-7.979c2.352 0 4.592.99 6.146 2.715a2.363 2.363 0 0 0 3.332.178 2.348 2.348 0 0 0 .178-3.323 13.004 13.004 0 0 0-9.656-4.276 12.967 12.967 0 0 0-8.335 3.014V2.465A2.468 2.468 0 0 0 11.848 0a2.468 2.468 0 0 0-2.471 2.465c0 4.586-.182 9.212-.001 13.794.15 3.8-.303 7.653.38 11.442.68 3.772 2.468 7.377 5.739 9.532a13.056 13.056 0 0 0 7.159 2.14c5.626 0 10.561-3.538 12.28-8.803.409-1.252.616-2.557.616-3.881 0-1.3-1.055-2.354-2.358-2.354ZM3.895 12.968c.996.48 1.727 1.402 2.16 2.416.435 1.014.598 2.122.697 3.22a29.273 29.273 0 0 1-.045 5.655c-.023.22-.104.497-.325.517-.15.014-.275-.11-.376-.224A47.57 47.57 0 0 1 .98 17.706c-.43-.714-.847-1.462-.956-2.287-.293-2.23 2.013-3.345 3.87-2.451Z" fill="#fff"/></svg>