<svg width="87" height="87" fill="none" xmlns="http://www.w3.org/2000/svg"><g clip-path="url(#a)"><rect x="9.81" y="19.892" width="58.065" height="58.065" rx="9" transform="rotate(-10 9.81 19.892)" fill="#fff"/><path d="m35.48 16.287-9.847 1.736c-5.171.912-7.756 1.368-9.554 2.722a9.375 9.375 0 0 0-3.323 4.746c-.658 2.153-.203 4.738.71 9.909l4.557 25.851c.912 5.17 1.368 7.756 2.723 9.554a9.375 9.375 0 0 0 4.746 3.323c2.152.658 4.738.202 9.908-.71l25.852-4.558c5.17-.912 7.756-1.367 9.553-2.722a9.375 9.375 0 0 0 3.323-4.746c.659-2.153.203-4.738-.71-9.909l-1.736-9.848m-30.41-10.503 12.31-2.171 2.17 12.31m-6.151-25.888-.814-4.616M62.3 16.51l2.689-3.84m2.744 15.382 4.617-.814M16.475 52.471a40.936 40.936 0 0 0 6.238-.614c13.5-2.38 24.258-11.171 29.698-22.69" stroke="#fff" stroke-width="9" stroke-linecap="round" stroke-linejoin="round"/><path d="m35.48 16.287-9.847 1.736c-5.171.912-7.756 1.368-9.554 2.722a9.375 9.375 0 0 0-3.323 4.746c-.658 2.153-.203 4.738.71 9.909l4.557 25.851c.912 5.17 1.368 7.756 2.723 9.554a9.375 9.375 0 0 0 4.746 3.323c2.152.658 4.738.202 9.908-.71l25.852-4.558c5.17-.912 7.756-1.367 9.553-2.722a9.375 9.375 0 0 0 3.323-4.746c.659-2.153.203-4.738-.709-9.909l-1.736-9.848M41.27 31.132l12.31-2.171 2.171 12.31M49.6 15.383l-.814-4.616M62.3 16.51l2.689-3.84m2.744 15.382 4.617-.814M16.475 52.471a40.936 40.936 0 0 0 6.238-.614c13.5-2.38 24.258-11.171 29.698-22.69" stroke="#1D202C" stroke-width="3" stroke-linecap="round" stroke-linejoin="round"/></g><defs><clipPath id="a"><path fill="#fff" transform="rotate(-10 74.43 6.512)" d="M0 0h75v75H0z"/></clipPath></defs></svg>