<svg width="75" height="75" fill="none" xmlns="http://www.w3.org/2000/svg"><path fill="#fff" d="m34.212 31 10.625 2.847-2.33 8.693-10.624-2.847z"/><path d="m30.174 40.77 4.56-17.02c-4.848-.67-14.663-2.042-15.133-2.168-.469-.126-5.105 5.76-7.365 8.72l-.183 19.45 10.157 9.012 18.422-.725 6.821-11.382-17.279-5.887Zm14.246-6.248 4.288-18.35 11.958 6.978L62.6 39.393l-18.18-4.87Z" fill="#fff"/><path d="M48.61 46.028c.657.176.985.264 1.212.48.187.18.33.46.366.717.044.31-.065.6-.284 1.178a19.618 19.618 0 1 1-15.187-26.306c.61.1.915.15 1.162.343.204.16.375.424.436.675.075.305-.013.633-.189 1.29l-4.062 15.159c-.177.663-.266.995-.205 1.283.054.253.186.483.379.656.218.197.55.286 1.213.463l15.16 4.062Zm-.47-28.559c.175-.657.263-.985.48-1.211a1.3 1.3 0 0 1 .716-.367c.31-.044.6.066 1.178.284A19.619 19.619 0 0 1 62.93 37.683c-.1.61-.15.915-.342 1.162-.16.204-.424.375-.676.437-.305.074-.633-.014-1.289-.19l-15.16-4.061c-.663-.178-.994-.267-1.213-.464a1.227 1.227 0 0 1-.379-.656c-.061-.288.028-.62.206-1.283l4.061-15.16Z" stroke="#fff" stroke-width="10.98" stroke-linecap="round" stroke-linejoin="round"/><path d="M48.61 46.028c.657.176.985.264 1.212.48.187.18.33.46.366.717.044.31-.065.6-.284 1.178a19.618 19.618 0 1 1-15.187-26.306c.61.1.915.15 1.162.343.204.16.375.424.436.675.075.305-.013.633-.189 1.29l-4.062 15.159c-.177.663-.266.995-.205 1.283.054.253.186.483.379.656.218.197.55.286 1.213.463l15.16 4.062Zm-.47-28.559c.175-.657.263-.985.48-1.211a1.3 1.3 0 0 1 .716-.367c.31-.044.6.066 1.178.284A19.619 19.619 0 0 1 62.93 37.683c-.1.61-.15.915-.342 1.162-.16.204-.424.375-.676.437-.305.074-.633-.014-1.289-.19l-15.16-4.061c-.663-.178-.994-.267-1.213-.464a1.227 1.227 0 0 1-.379-.656c-.061-.288.028-.62.206-1.283l4.061-15.16Z" stroke="#1D202C" stroke-width="3.66" stroke-linecap="round" stroke-linejoin="round"/></svg>