<svg width="101" height="101" fill="none" xmlns="http://www.w3.org/2000/svg"><g clip-path="url(#a)"><path fill="#fff" d="m29.862 19.599 41.107 15.78-15.328 39.933-41.108-15.78z"/><path fill="#fff" d="m64.385 49.022 15.269 5.861-4.96 12.92-15.268-5.861z"/><path d="M82.015 52.628c.67-1.747 1.006-2.621.816-3.158a1.545 1.545 0 0 0-1.017-.966c-.547-.161-1.401.22-3.111.98l-14.505 6.458 6.458 14.505c.761 1.71 1.142 2.565 1.656 2.81.446.213.968.2 1.402-.037.5-.272.836-1.145 1.507-2.892l6.794-17.7Z" stroke="#fff" stroke-width="11.238" stroke-linecap="round" stroke-linejoin="round"/><path d="M23.374 32.992c1.86-4.846 2.79-7.269 4.443-8.757a9.268 9.268 0 0 1 5.233-2.33c2.213-.233 4.635.697 9.48 2.557l15.574 5.979c4.846 1.86 7.269 2.79 8.758 4.443a9.267 9.267 0 0 1 2.33 5.232c.232 2.213-.698 4.636-2.558 9.481l-4.871 12.69c-1.86 4.846-2.79 7.268-4.444 8.757a9.268 9.268 0 0 1-5.232 2.33c-2.213.233-4.636-.698-9.482-2.558l-15.573-5.978c-4.846-1.86-7.268-2.79-8.757-4.443a9.267 9.267 0 0 1-2.33-5.233c-.232-2.212.698-4.635 2.558-9.48l4.87-12.69Z" stroke="#fff" stroke-width="11.238" stroke-linecap="round" stroke-linejoin="round"/><path d="M82.015 52.628c.67-1.747 1.006-2.621.816-3.158a1.545 1.545 0 0 0-1.017-.966c-.547-.161-1.401.22-3.111.98l-14.505 6.458 6.458 14.505c.761 1.71 1.142 2.565 1.656 2.81.446.213.968.2 1.402-.037.5-.272.836-1.145 1.507-2.892l6.794-17.7Z" stroke="#1D202C" stroke-width="4" stroke-linecap="round" stroke-linejoin="round"/><path d="M23.374 32.992c1.86-4.846 2.79-7.269 4.443-8.757a9.268 9.268 0 0 1 5.233-2.33c2.213-.233 4.635.697 9.48 2.557l15.574 5.979c4.846 1.86 7.269 2.79 8.758 4.443a9.267 9.267 0 0 1 2.33 5.232c.232 2.213-.698 4.636-2.558 9.481l-4.871 12.69c-1.86 4.846-2.79 7.268-4.444 8.757a9.268 9.268 0 0 1-5.232 2.33c-2.213.233-4.636-.698-9.482-2.558l-15.573-5.978c-4.846-1.86-7.268-2.79-8.757-4.443a9.267 9.267 0 0 1-2.33-5.233c-.232-2.212.698-4.635 2.558-9.48l4.87-12.69Z" stroke="#1D202C" stroke-width="4" stroke-linecap="round" stroke-linejoin="round"/></g><defs><clipPath id="a"><path fill="#fff" transform="rotate(21 13.976 75.41)" d="M0 0h78v78H0z"/></clipPath></defs></svg>