<svg width="21" height="21" fill="none" xmlns="http://www.w3.org/2000/svg"><path d="M12.879 5a4.584 4.584 0 0 1 3.62 3.621m-3.62-7.288a8.25 8.25 0 0 1 7.287 7.279M9.374 12.208a13.386 13.386 0 0 1-2.609-3.676 1.526 1.526 0 0 1-.103-.243.959.959 0 0 1 .135-.79c.043-.062.096-.114.2-.22.321-.32.481-.48.586-.64a1.833 1.833 0 0 0 0-2c-.105-.16-.265-.321-.585-.641l-.179-.18c-.487-.486-.73-.73-.992-.862a1.833 1.833 0 0 0-1.655 0c-.262.132-.505.376-.993.863l-.144.144c-.486.486-.728.729-.914 1.059a3.096 3.096 0 0 0-.352 1.355c.001.378.074.637.221 1.154a17.452 17.452 0 0 0 4.468 7.594 17.452 17.452 0 0 0 7.593 4.467c.517.147.776.22 1.155.222.42 0 .989-.147 1.355-.353.33-.185.573-.428 1.058-.913l.145-.145c.487-.487.73-.73.863-.992a1.834 1.834 0 0 0 0-1.655c-.133-.262-.376-.505-.863-.993l-.18-.178c-.32-.32-.48-.48-.641-.586a1.833 1.833 0 0 0-1.999 0c-.16.105-.321.265-.642.586a1.858 1.858 0 0 1-.218.2.959.959 0 0 1-.79.136c-.072-.021-.13-.049-.244-.104a13.386 13.386 0 0 1-3.676-2.609Z" stroke="#fff" stroke-width="1.6" stroke-linecap="round" stroke-linejoin="round"/></svg>