<svg width="40" height="40" fill="none" xmlns="http://www.w3.org/2000/svg"><path fill-rule="evenodd" clip-rule="evenodd" d="M20 4.045C11.188 4.045 4.045 11.188 4.045 20c0 8.812 7.143 15.955 15.955 15.955 8.812 0 15.955-7.143 15.955-15.955 0-8.812-7.143-15.955-15.955-15.955ZM0 20C0 8.954 8.954 0 20 0s20 8.954 20 20-8.954 20-20 20S0 31.046 0 20Z" fill="#B9FF66"/><path fill-rule="evenodd" clip-rule="evenodd" d="M22.318 17.973a2.023 2.023 0 0 1-.29-2.846c1.044-1.282 2.565-2.112 4.264-2.112 1.72 0 3.196.847 4.241 2.084a2.022 2.022 0 0 1-3.089 2.611c-.428-.507-.84-.65-1.152-.65-.332 0-.752.16-1.128.622a2.023 2.023 0 0 1-2.846.29Zm-12.584 0a2.023 2.023 0 0 1-.29-2.846c1.043-1.282 2.565-2.112 4.264-2.112 1.72 0 3.196.847 4.241 2.084a2.022 2.022 0 1 1-3.089 2.611c-.429-.507-.84-.65-1.152-.65-.333 0-.752.16-1.129.622a2.023 2.023 0 0 1-2.845.29Zm16.736 9.056c-1.459 1.061-3.665 2.185-6.47 2.185-2.804 0-5.011-1.124-6.47-2.185a12.704 12.704 0 0 1-1.69-1.472 10.393 10.393 0 0 1-.585-.666l-.04-.051-.014-.018-.006-.007-.002-.003s-.002-.003 1.492-1.123l-1.494 1.12a2.022 2.022 0 0 1 3.235-2.428l.057.069c.057.067.15.175.278.308.257.269.645.634 1.148 1 1.012.736 2.401 1.41 4.091 1.41 1.69 0 3.079-.674 4.091-1.41a8.67 8.67 0 0 0 1.148-1 6.373 6.373 0 0 0 .335-.377l.002-.003.004-.005a2.022 2.022 0 0 1 3.229 2.436l-1.523-1.142 1.523 1.142-.002.003-.002.003-.006.007-.014.018-.04.051a10.33 10.33 0 0 1-.586.665c-.388.406-.955.94-1.688 1.473Z" fill="#B9FF66"/></svg>