<svg width="40" height="40" fill="none" xmlns="http://www.w3.org/2000/svg"><path fill-rule="evenodd" clip-rule="evenodd" d="M20 4.045C11.188 4.045 4.045 11.188 4.045 20c0 8.812 7.143 15.955 15.955 15.955 8.812 0 15.955-7.143 15.955-15.955 0-8.812-7.143-15.955-15.955-15.955ZM0 20C0 8.954 8.954 0 20 0s20 8.954 20 20-8.954 20-20 20S0 31.046 0 20Zm17.682-6.53c.866.705.996 1.98.29 2.845-1.043 1.282-2.565 2.112-4.264 2.112-1.72 0-3.196-.846-4.241-2.083a2.022 2.022 0 1 1 3.089-2.612c.429.508.84.65 1.152.65.332 0 .752-.16 1.128-.621a2.022 2.022 0 0 1 2.846-.291Zm12.584 0c.866.705.996 1.98.29 2.845-1.043 1.282-2.565 2.112-4.264 2.112-1.72 0-3.196-.846-4.241-2.083a2.022 2.022 0 1 1 3.089-2.612c.429.508.84.65 1.152.65.333 0 .752-.16 1.129-.621a2.022 2.022 0 0 1 2.845-.291ZM13.53 23.758c1.459-1.062 3.666-2.185 6.47-2.185s5.011 1.123 6.47 2.185a12.654 12.654 0 0 1 1.69 1.472 10.387 10.387 0 0 1 .585.665l.04.052.014.018.006.007.002.003s.002.002-1.492 1.123l1.494-1.12a2.022 2.022 0 0 1-3.23 2.435l-.005-.007a6.333 6.333 0 0 0-.335-.377 8.67 8.67 0 0 0-1.148-1c-1.012-.737-2.401-1.411-4.091-1.411-1.69 0-3.079.674-4.091 1.41a8.67 8.67 0 0 0-1.148 1 6.333 6.333 0 0 0-.335.378l-.002.003-.004.005a2.022 2.022 0 0 1-3.229-2.437l1.523 1.142-1.523-1.142.002-.002.002-.003.006-.007.013-.018.04-.052.13-.159c.109-.129.261-.303.456-.506.389-.406.956-.939 1.69-1.472Z" fill="#EA4256"/></svg>