<svg width="19" height="16" viewBox="0 0 19 16" fill="none" xmlns="http://www.w3.org/2000/svg">
<path fill-rule="evenodd" clip-rule="evenodd" d="M7.25003 1.75C5.59318 1.75 4.25003 3.09315 4.25003 4.75C4.25003 6.40685 5.59318 7.75 7.25003 7.75C8.90689 7.75 10.25 6.40685 10.25 4.75C10.25 3.09315 8.90689 1.75 7.25003 1.75ZM2.75003 4.75C2.75003 2.26472 4.76475 0.25 7.25003 0.25C9.73531 0.25 11.75 2.26472 11.75 4.75C11.75 7.23528 9.73531 9.25 7.25003 9.25C4.76475 9.25 2.75003 7.23528 2.75003 4.75ZM11.9951 1.05603C12.1794 0.685091 12.6295 0.533826 13.0005 0.718164C14.4804 1.45361 15.5 2.98204 15.5 4.75C15.5 6.51796 14.4804 8.04639 13.0005 8.78184C12.6295 8.96617 12.1794 8.81491 11.9951 8.44397C11.8107 8.07304 11.962 7.6229 12.3329 7.43856C13.3226 6.94676 14 5.92681 14 4.75C14 3.57319 13.3226 2.55324 12.3329 2.06144C11.962 1.8771 11.8107 1.42696 11.9951 1.05603ZM7.25003 12.5833C5.10339 12.5833 3.10288 13.7042 1.58978 15.63C1.33387 15.9557 0.862381 16.0123 0.536674 15.7564C0.210967 15.5005 0.154381 15.029 0.410287 14.7033C2.14133 12.5001 4.54531 11.0833 7.25003 11.0833C9.95476 11.0833 12.3587 12.5001 14.0898 14.7033C14.3457 15.029 14.2891 15.5005 13.9634 15.7564C13.6377 16.0123 13.1662 15.9557 12.9103 15.63C11.3972 13.7042 9.39668 12.5833 7.25003 12.5833ZM13.6501 12.1628C13.8208 11.7854 14.2652 11.6179 14.6426 11.7887C16.027 12.4151 17.2533 13.4265 18.2564 14.7033C18.5124 15.029 18.4558 15.5005 18.1301 15.7564C17.8044 16.0123 17.3329 15.9557 17.077 15.63C16.201 14.5151 15.1589 13.6687 14.0242 13.1553C13.6468 12.9845 13.4793 12.5402 13.6501 12.1628Z" fill="white"/>
</svg>
