<svg width="19" height="17" viewBox="0 0 19 17" fill="none" xmlns="http://www.w3.org/2000/svg">
<path d="M12.8334 1.8898C14.0681 2.50343 14.9167 3.77762 14.9167 5.25C14.9167 6.72238 14.0681 7.99657 12.8334 8.6102M14.5 12.972C15.7596 13.5419 16.8938 14.4708 17.8334 15.6667M1.16669 15.6667C2.78876 13.6021 4.991 12.3333 7.41669 12.3333C9.84237 12.3333 12.0446 13.6021 13.6667 15.6667M11.1667 5.25C11.1667 7.32107 9.48776 9 7.41669 9C5.34562 9 3.66669 7.32107 3.66669 5.25C3.66669 3.17893 5.34562 1.5 7.41669 1.5C9.48776 1.5 11.1667 3.17893 11.1667 5.25Z" stroke="#1D202C" stroke-width="1.8" stroke-linecap="round" stroke-linejoin="round"/>
</svg>
