<svg width="19" height="14" viewBox="0 0 19 14" fill="none" xmlns="http://www.w3.org/2000/svg">
<path d="M17.8334 4.44281C17.8334 3.93796 17.8334 3.68554 17.7335 3.56865C17.6469 3.46723 17.517 3.41341 17.384 3.42387C17.2308 3.43593 17.0523 3.61442 16.6953 3.9714L13.6667 7L16.6953 10.0286C17.0523 10.3856 17.2308 10.5641 17.384 10.5761C17.517 10.5866 17.6469 10.5328 17.7335 10.4313C17.8334 10.3145 17.8334 10.062 17.8334 9.55719V4.44281Z" stroke="#1D202C" stroke-width="1.8" stroke-linecap="round" stroke-linejoin="round"/>
<path d="M1.16669 5.16666C1.16669 3.76653 1.16669 3.06647 1.43917 2.53169C1.67885 2.06128 2.06131 1.67883 2.53171 1.43915C3.06649 1.16666 3.76656 1.16666 5.16669 1.16666H9.66669C11.0668 1.16666 11.7669 1.16666 12.3017 1.43915C12.7721 1.67883 13.1545 2.06128 13.3942 2.53169C13.6667 3.06647 13.6667 3.76653 13.6667 5.16666V8.83333C13.6667 10.2335 13.6667 10.9335 13.3942 11.4683C13.1545 11.9387 12.7721 12.3212 12.3017 12.5608C11.7669 12.8333 11.0668 12.8333 9.66669 12.8333H5.16669C3.76656 12.8333 3.06649 12.8333 2.53171 12.5608C2.06131 12.3212 1.67885 11.9387 1.43917 11.4683C1.16669 10.9335 1.16669 10.2335 1.16669 8.83333V5.16666Z" stroke="#1D202C" stroke-width="1.8" stroke-linecap="round" stroke-linejoin="round"/>
</svg>
