<svg width="22" height="20" viewBox="0 0 22 20" fill="none" xmlns="http://www.w3.org/2000/svg">
<path d="M21.0527 17.36L18.6047 19.016L15.8447 15.464C14.0527 16.744 11.8687 17.384 9.29267 17.384C6.76467 17.384 4.74067 16.824 3.22067 15.704C1.70067 14.568 0.940674 12.984 0.940674 10.952C0.940674 9.368 1.41267 8.144 2.35667 7.28C3.31667 6.4 4.44467 5.96 5.74067 5.96C6.98867 5.96 8.02067 6.416 8.83667 7.328V6.536L4.92467 1.544L4.90067 0.0800018H17.8127V2.768H9.14867L15.9647 11.12C16.8447 9.584 17.2847 7.688 17.2847 5.432H20.3567C20.3567 8.68 19.5407 11.368 17.9087 13.496L21.0527 17.36ZM9.29267 14.696C11.2127 14.696 12.8127 14.216 14.0927 13.256L11.9087 10.448C11.2047 9.536 10.5087 8.888 9.82067 8.504C9.14867 8.12 8.36467 7.928 7.46867 7.928C6.46067 7.928 5.63667 8.208 4.99667 8.768C4.35667 9.312 4.03667 10.072 4.03667 11.048C4.03667 12.232 4.49267 13.136 5.40467 13.76C6.31667 14.384 7.61267 14.696 9.29267 14.696Z" fill="#013AE6"/>
</svg>
