<svg width="805" height="430" viewBox="0 0 805 430" fill="none" xmlns="http://www.w3.org/2000/svg">
<g filter="url(#filter0_b_38_255)">
<path d="M96.4744 136.386C103.521 142.225 107.044 155.714 107.044 176.854C107.044 181.887 106.239 186.518 104.628 190.746C103.219 194.773 101.306 198.095 98.8904 200.712C96.4744 203.128 93.7564 205.242 90.7364 207.054C87.9177 208.866 84.9984 210.275 81.9784 211.282C78.9584 212.087 76.2404 212.691 73.8244 213.094C71.4084 213.497 69.3951 213.799 67.7844 214H65.6704H0.438399V2.59999H62.9524C74.8311 2.59999 84.9984 6.82799 93.4544 15.284C101.91 23.74 106.138 33.9073 106.138 45.786V109.206C106.138 119.273 102.917 128.333 96.4744 136.386ZM62.9524 39.444H37.2824V103.166C37.2824 110.011 45.6377 114.139 62.3484 115.548C64.3617 115.749 66.0731 115.145 67.4824 113.736C68.6904 112.528 69.2944 111.018 69.2944 109.206V45.786C69.2944 43.974 68.6904 42.464 67.4824 41.256C66.2744 40.048 64.7644 39.444 62.9524 39.444ZM59.9324 183.8C67.9857 183.8 71.7104 178.767 71.1064 168.7C70.7037 159.841 66.0731 154.204 57.2144 151.788C49.9664 151.184 43.3224 149.976 37.2824 148.164V183.8H59.9324ZM198.907 177.156V214H163.573H126.729V2.59999H163.573V177.156H198.907ZM326.864 43.068V173.532C326.864 184.605 322.837 194.169 314.784 202.222C306.932 210.074 297.469 214 286.396 214H247.74C236.667 214 227.103 210.074 219.05 202.222C211.198 194.169 207.272 184.605 207.272 173.532V43.068C207.272 31.9947 211.198 22.532 219.05 14.68C227.103 6.62665 236.667 2.59999 247.74 2.59999H286.396C297.469 2.59999 306.932 6.62665 314.784 14.68C322.837 22.532 326.864 31.9947 326.864 43.068ZM279.752 175.948C282.772 174.539 285.188 172.525 287 169.908C289.013 167.089 290.02 163.868 290.02 160.244V56.356C290.02 53.94 289.617 51.7253 288.812 49.712C288.007 47.6987 286.799 45.9873 285.188 44.578C283.779 42.9673 282.067 41.7593 280.054 40.954C278.041 40.5513 273.712 40.35 267.068 40.35C260.424 40.35 255.995 40.5513 253.78 40.954C250.961 42.3633 248.646 44.4773 246.834 47.296C245.022 49.9133 244.116 52.9333 244.116 56.356V160.244C244.116 162.66 244.519 164.875 245.324 166.888C246.129 168.901 247.337 170.713 248.948 172.324C250.559 173.935 252.371 175.143 254.384 175.948C256.397 176.149 260.625 176.25 267.068 176.25C273.511 176.25 277.739 176.149 279.752 175.948ZM399.102 37.632C396.887 37.632 394.673 38.1353 392.458 39.142C390.445 39.9473 388.633 41.1553 387.022 42.766C385.613 44.1753 384.505 45.8867 383.7 47.9C382.895 49.9133 382.492 52.128 382.492 54.544V158.432C382.492 161.653 383.197 164.573 384.606 167.19C386.217 169.606 388.331 171.619 390.948 173.23C393.565 174.841 396.384 175.545 399.404 175.344H410.578C411.987 175.344 413.195 175.042 414.202 174.438C415.41 173.834 416.316 172.928 416.92 171.72C417.725 170.512 418.128 169.304 418.128 168.096V88.368H451.046V188.934C447.019 193.967 441.281 201.014 433.832 210.074C421.752 212.691 410.578 214 400.31 214C387.626 214 375.345 209.671 363.466 201.014C351.587 192.357 345.648 182.592 345.648 171.72V41.256C345.648 30.1827 349.574 20.72 357.426 12.868C365.479 4.81466 375.043 0.787991 386.116 0.787991H399.404C412.893 0.787991 426.081 3.00266 438.966 7.432L441.684 8.33798V45.182L438.966 44.276C426.081 39.8467 412.793 37.632 399.102 37.632ZM521.264 37.632C519.049 37.632 516.835 38.1353 514.62 39.142C512.607 39.9473 510.795 41.1553 509.184 42.766C507.775 44.1753 506.667 45.8867 505.862 47.9C505.057 49.9133 504.654 52.128 504.654 54.544V158.432C504.654 161.653 505.359 164.573 506.768 167.19C508.379 169.606 510.493 171.619 513.11 173.23C515.727 174.841 518.546 175.545 521.566 175.344H532.74C534.149 175.344 535.357 175.042 536.364 174.438C537.572 173.834 538.478 172.928 539.082 171.72C539.887 170.512 540.29 169.304 540.29 168.096V88.368H573.208V188.934C569.181 193.967 563.443 201.014 555.994 210.074C543.914 212.691 532.74 214 522.472 214C509.788 214 497.507 209.671 485.628 201.014C473.749 192.357 467.81 182.592 467.81 171.72V41.256C467.81 30.1827 471.736 20.72 479.588 12.868C487.641 4.81466 497.205 0.787991 508.278 0.787991H521.566C535.055 0.787991 548.243 3.00266 561.128 7.432L563.846 8.33798V45.182L561.128 44.276C548.243 39.8467 534.955 37.632 521.264 37.632ZM682.082 39.444H628.628V89.878H670.002V126.722H628.628V177.156H682.082V214H591.784V2.59999H682.082V39.444ZM791.022 140.312C797.264 149.573 800.485 159.439 800.686 169.908C801.089 186.015 801.089 200.913 800.686 214.604L763.842 213.396C764.245 199.504 764.245 185.31 763.842 170.814C763.641 163.566 759.111 157.023 750.252 151.184C745.018 150.58 740.085 149.573 735.454 148.164V214H698.61V2.59999H761.124C773.003 2.59999 783.17 6.82799 791.626 15.284C800.082 23.74 804.31 33.9073 804.31 45.786V96.522C804.31 97.5287 804.21 98.938 804.008 100.75C804.008 102.361 803.807 105.381 803.404 109.81C803.002 114.239 802.297 118.266 801.29 121.89C800.485 125.514 799.176 129.138 797.364 132.762C795.552 136.386 793.438 138.903 791.022 140.312ZM735.454 103.166C735.454 110.011 743.81 114.139 760.52 115.548C762.534 115.749 764.245 115.145 765.654 113.736C766.862 112.528 767.466 111.018 767.466 109.206V45.786C767.466 44.578 767.164 43.4707 766.56 42.464C766.158 41.4573 765.453 40.7527 764.446 40.35C763.44 39.746 762.332 39.444 761.124 39.444H735.454V103.166ZM237.443 341.522C237.04 354.206 236.436 362.662 235.631 366.89C234.423 373.333 230.396 379.675 223.551 385.916C215.296 393.567 205.532 397.392 194.257 397.392C193.049 397.392 191.841 397.291 190.633 397.09C182.781 396.486 175.432 395.177 168.587 393.164V459H131.743V247.6H194.257C206.136 247.6 216.303 251.828 224.759 260.284C233.215 268.74 237.443 278.907 237.443 290.786V341.522ZM200.599 354.206V290.786C200.599 289.578 200.297 288.471 199.693 287.464C199.29 286.457 198.586 285.753 197.579 285.35C196.572 284.746 195.465 284.444 194.257 284.444H168.587V348.166C168.587 355.011 176.942 359.139 193.653 360.548C195.666 360.749 197.378 360.145 198.787 358.736C199.995 357.528 200.599 356.018 200.599 354.206ZM325.198 422.156V459H289.864H253.02V247.6H289.864V422.156H325.198ZM437.451 280.216C437.854 289.276 442.082 319.879 450.135 372.024C458.189 423.968 463.021 452.96 464.631 459H426.579C423.761 447.323 421.043 434.941 418.425 421.854H372.521C369.904 434.941 367.186 447.323 364.367 459H326.617C328.228 452.96 332.959 424.471 340.811 373.534C348.663 322.597 352.891 292.9 353.495 284.444H339.603V247.6H437.451V280.216ZM377.353 395.58H413.593C406.949 356.723 402.721 319.677 400.909 284.444H390.339C388.527 319.677 384.199 356.723 377.353 395.58ZM529.241 284.444C524.409 284.444 520.382 286.055 517.161 289.276C513.94 292.497 512.329 296.524 512.329 301.356V405.244C512.329 410.076 513.94 414.103 517.161 417.324C520.382 420.545 524.409 422.156 529.241 422.156C542.73 422.156 555.918 420.243 568.803 416.418L571.521 415.814V452.356L568.803 453.262C555.918 457.087 542.73 459 529.241 459H515.953C504.88 459 495.316 455.074 487.263 447.222C479.411 439.169 475.485 429.605 475.485 418.532V288.068C475.485 276.995 479.411 267.532 487.263 259.68C495.316 251.627 504.88 247.6 515.953 247.6H529.241C542.73 247.6 555.918 249.815 568.803 254.244L571.521 255.15V291.692L568.803 290.786C555.918 286.558 542.73 284.444 529.241 284.444ZM675.889 284.444H622.435V334.878H663.809V371.722H622.435V422.156H675.889V459H585.591V247.6H675.889V284.444Z" fill="url(#paint0_linear_38_255)" fill-opacity="0.5"/>
</g>
<defs>
<filter id="filter0_b_38_255" x="-39.5615" y="-39.212" width="883.872" height="538.212" filterUnits="userSpaceOnUse" color-interpolation-filters="sRGB">
<feFlood flood-opacity="0" result="BackgroundImageFix"/>
<feGaussianBlur in="BackgroundImageFix" stdDeviation="20"/>
<feComposite in2="SourceAlpha" operator="in" result="effect1_backgroundBlur_38_255"/>
<feBlend mode="normal" in="SourceGraphic" in2="effect1_backgroundBlur_38_255" result="shape"/>
</filter>
<linearGradient id="paint0_linear_38_255" x1="91.25" y1="99.7871" x2="727.911" y2="577.812" gradientUnits="userSpaceOnUse">
<stop stop-color="#0012C7"/>
<stop offset="1" stop-color="#0067C7"/>
</linearGradient>
</defs>
</svg>
