<svg width="19" height="15" viewBox="0 0 19 15" fill="none" xmlns="http://www.w3.org/2000/svg">
<path d="M17.8334 4.94313C17.8334 4.43829 17.8334 4.18586 17.7336 4.06898C17.647 3.96756 17.517 3.91373 17.3841 3.9242C17.2308 3.93626 17.0523 4.11475 16.6953 4.47173L13.6667 7.50033L16.6953 10.5289C17.0523 10.8859 17.2308 11.0644 17.3841 11.0765C17.517 11.0869 17.647 11.0331 17.7336 10.9317C17.8334 10.8148 17.8334 10.5624 17.8334 10.0575V4.94313Z" stroke="white" stroke-width="1.5" stroke-linecap="round" stroke-linejoin="round"/>
<path d="M1.16675 5.66699C1.16675 4.26686 1.16675 3.5668 1.43923 3.03202C1.67892 2.56161 2.06137 2.17916 2.53177 1.93948C3.06655 1.66699 3.76662 1.66699 5.16675 1.66699H9.66675C11.0669 1.66699 11.7669 1.66699 12.3017 1.93948C12.7721 2.17916 13.1546 2.56161 13.3943 3.03202C13.6667 3.5668 13.6667 4.26686 13.6667 5.66699V9.33366C13.6667 10.7338 13.6667 11.4339 13.3943 11.9686C13.1546 12.439 12.7721 12.8215 12.3017 13.0612C11.7669 13.3337 11.0669 13.3337 9.66675 13.3337H5.16675C3.76662 13.3337 3.06655 13.3337 2.53177 13.0612C2.06137 12.8215 1.67892 12.439 1.43923 11.9686C1.16675 11.4339 1.16675 10.7338 1.16675 9.33366V5.66699Z" stroke="white" stroke-width="1.5" stroke-linecap="round" stroke-linejoin="round"/>
</svg>
