<svg width="133" height="76" viewBox="0 0 133 76" fill="none" xmlns="http://www.w3.org/2000/svg">
<path d="M13.6959 11.9915C15.1249 5.01165 21.2665 0 28.3911 0H103.288C110.294 0 116.368 4.85058 117.917 11.6838L129.728 63.7892C131.147 70.0454 126.391 76 119.976 76H12.8465C6.51747 76 1.78028 70.1947 3.04965 63.9944L13.6959 11.9915Z" fill="#B9FF66"/>
<mask id="mask0_313_58" style="mask-type:alpha" maskUnits="userSpaceOnUse" x="2" y="0" width="128" height="76">
<path d="M13.6959 11.9915C15.1249 5.01165 21.2665 0 28.3911 0H103.288C110.294 0 116.368 4.85058 117.917 11.6838L129.728 63.7892C131.147 70.0454 126.391 76 119.976 76H12.8465C6.51747 76 1.78028 70.1947 3.04965 63.9944L13.6959 11.9915Z" fill="#013AE6"/>
</mask>
<g mask="url(#mask0_313_58)">
<path d="M11.5895 98.3513C4.2577 89.9189 0.591797 79.1351 0.591797 66C0.591797 52.8649 4.2577 42.0811 11.5895 33.6486C18.9213 25.2162 27.7967 21 38.2156 21C48.6345 21 57.5098 25.2162 64.8417 33.6486C72.1735 42.0811 75.8394 52.8649 75.8394 66C75.8394 79.1351 72.1735 89.9189 64.8417 98.3513C57.5098 106.784 48.6345 111 38.2156 111C27.7967 111 18.9213 106.784 11.5895 98.3513ZM21.0823 42.6486C16.6832 48.1622 14.4837 55.9459 14.4837 66C14.4837 76.0541 16.6832 83.8378 21.0823 89.3514C25.5586 94.8649 31.2697 97.6216 38.2156 97.6216C45.1615 97.6216 50.834 94.8649 55.2331 89.3514C59.7094 83.8378 61.9475 76.0541 61.9475 66C61.9475 55.9459 59.7094 48.1622 55.2331 42.6486C50.834 37.1351 45.1615 34.3784 38.2156 34.3784C31.2697 34.3784 25.5586 37.1351 21.0823 42.6486Z" fill="url(#paint0_linear_313_58)"/>
<path d="M84.5489 108.568V95.1892L112.217 74.6351C118.237 70.0946 122.559 65.8784 125.183 61.9865C127.807 58.0946 129.119 53.9595 129.119 49.5811C129.119 44.9595 127.768 41.2703 125.067 38.5135C122.366 35.7568 118.7 34.3784 114.069 34.3784C108.358 34.3784 104.075 36.8108 101.219 41.6757C99.9843 43.7838 99.0582 46.2162 98.4408 48.973H84.5489C85.2435 43.7838 86.7485 39.1216 89.0638 34.9865C94.5434 25.6622 102.878 21 114.069 21C122.636 21 129.582 23.6757 134.907 29.027C140.309 34.2973 143.011 40.9459 143.011 48.973C143.011 55.9459 141.313 62.2297 137.917 67.8243C134.521 73.3378 129.08 78.8108 121.594 84.2432L110.017 92.7568L104.808 95.1892V95.7973L111.754 95.1892H143.011V108.568H84.5489Z" fill="url(#paint1_linear_313_58)"/>
</g>
<defs>
<linearGradient id="paint0_linear_313_58" x1="71.3233" y1="42" x2="71.8464" y2="111" gradientUnits="userSpaceOnUse">
<stop stop-color="white"/>
<stop offset="1" stop-opacity="0"/>
</linearGradient>
<linearGradient id="paint1_linear_313_58" x1="71.3233" y1="42" x2="71.8464" y2="111" gradientUnits="userSpaceOnUse">
<stop stop-color="white"/>
<stop offset="1" stop-opacity="0"/>
</linearGradient>
</defs>
</svg>
