<svg width="146" height="40" viewBox="0 0 146 40" fill="none" xmlns="http://www.w3.org/2000/svg">
<path d="M80.5792 14.7675C79.9494 14.2174 79.1525 13.9265 78.294 13.8212C76.5555 13.6068 74.5653 14.1529 73.2088 14.852C72.5806 15.1757 71.8276 15.6293 71.145 16.1762V16.1013C71.145 14.6718 69.9828 13.5127 68.5497 13.5127C67.1165 13.5127 65.9543 14.6718 65.9543 16.1013V37.4117C65.9543 38.8411 67.1165 40.0002 68.5497 40.0002C69.9828 40.0002 71.145 38.8411 71.145 37.4117V20.985C73.1841 19.2758 75.4309 18.3558 78.3204 18.473C79.5274 18.5216 80.8902 18.3159 81.3178 17.0037C81.5752 16.2129 81.2059 15.3152 80.5792 14.7675Z" fill="white"/>
<path d="M145.178 14.7675C144.549 14.2174 143.752 13.9265 142.893 13.8212C141.155 13.6068 139.164 14.1529 137.808 14.852C137.18 15.1757 136.427 15.6293 135.744 16.1762V16.1013C135.744 14.6718 134.582 13.5127 133.149 13.5127C131.716 13.5127 130.553 14.6718 130.553 16.1013V37.4117C130.553 38.8411 131.716 40.0002 133.149 40.0002C134.582 40.0002 135.744 38.8411 135.744 37.4117V20.985C137.783 19.2758 140.03 18.3558 142.92 18.473C144.126 18.5216 145.489 18.3159 145.917 17.0037C146.174 16.2129 145.806 15.3152 145.178 14.7675Z" fill="white"/>
<path d="M59.6585 23.8091V36.6802C59.6585 38.1048 58.597 39.2839 57.2878 39.2839C55.9785 39.2839 54.917 38.1048 54.917 36.6802V35.1942C53.3592 38.0801 50.6504 39.5294 47.5123 39.5294C43.3583 39.5294 39.52 36.9752 39.52 31.7677C39.52 26.7078 43.6293 23.8091 49.0469 23.8091C50.9437 23.8091 52.7949 24.2021 54.917 25.0863V24.1033C54.917 20.566 53.3816 18.6503 49.2276 18.6503C47.2525 18.6503 45.6947 19.2275 44.7914 19.6572C43.9785 20.0502 43.5269 20.2958 42.782 20.2958C41.8676 20.2958 40.942 19.5344 40.942 18.1712C40.942 17.2871 41.3824 16.403 42.6461 15.7397C44.204 14.9289 46.9919 13.9834 50.1524 13.9834C56.7914 13.9834 59.6585 17.0296 59.6585 23.8091ZM54.917 28.5741C53.0659 27.6405 51.2147 27.2475 49.5441 27.2475C45.9768 27.2475 44.2615 28.7216 44.2615 31.4233C44.2615 34.0757 45.8873 35.3536 48.4155 35.3536C51.8917 35.3536 54.917 32.9954 54.917 28.5741Z" fill="white"/>
<path d="M84.3403 14.5425V10.0103C84.3403 8.58966 85.4761 7.43848 86.8781 7.43848C88.2801 7.43848 89.4159 8.58966 89.4159 10.0103V14.5425H95.6393C96.9078 14.5425 97.9349 15.5837 97.9349 16.8696C97.9349 18.1555 96.9078 19.1966 95.6393 19.1966H89.4159V30.1703C89.4159 33.3552 91.2288 34.6284 93.5004 34.6284C94.2493 34.6284 95.071 34.4817 95.5186 34.3589C96.1229 34.1875 96.449 34.1628 96.6544 34.1628C97.9357 34.1628 98.8413 35.0693 98.8413 36.3552C98.8413 37.4944 98.2011 38.3881 96.8958 38.8664C95.8208 39.2586 94.3221 39.5281 92.7754 39.5281C88.9571 39.5281 84.3411 37.5685 84.3411 30.9548V19.1966" fill="white"/>
<path d="M122.443 27.4907H106.286C106.831 31.5916 109.834 34.5134 115.17 34.5134C117.02 34.5134 118.819 34.1746 120.631 33.4722C120.91 33.3718 121.227 33.3096 121.543 33.3096C122.912 33.3096 124.015 34.4002 124.015 35.7547C124.015 36.7576 123.407 37.6233 122.545 37.9996C120.264 38.9906 117.717 39.5295 115.018 39.5295C106.097 39.5295 100.774 33.7608 100.774 26.4376C100.774 19.214 105.945 13.4453 113.903 13.4453C120.949 13.4453 125.511 17.96 125.511 24.8073C125.51 26.6759 124.344 27.4907 122.443 27.4907ZM120.125 23.7916C120.125 19.8039 116.488 17.9608 113.725 17.9608C109.974 17.9608 107.275 20.2304 106.464 23.7294L120.125 23.7916Z" fill="white"/>
<path d="M33.1921 24.3351C31.8892 24.3351 30.8333 25.3882 30.8333 26.6877C30.8333 27.5168 30.7038 28.3323 30.4497 29.112C29.3642 32.4348 26.2317 34.6662 22.6548 34.6662C18.1452 34.6662 14.4771 31.0875 14.4771 26.6877C14.4771 22.2886 18.146 18.7091 22.6548 18.7091C25.0072 18.7091 27.2469 19.6985 28.8015 21.4244C29.6719 22.3915 31.1635 22.4712 32.133 21.6022C33.1026 20.734 33.1825 19.2464 32.3113 18.2794C29.8638 15.5617 26.3436 14.0031 22.6548 14.0031C19.4792 14.0031 16.5689 15.1384 14.3197 17.0166V2.465C14.3197 1.10335 13.2134 0 11.8482 0C10.483 0 9.37678 1.10335 9.37678 2.465C9.37678 7.05059 9.19533 11.6768 9.37598 16.2585C9.52625 20.0596 9.07304 23.9117 9.75645 27.7009C10.4367 31.4734 12.2239 35.0776 15.4947 37.2333C17.6104 38.6276 20.1194 39.3722 22.654 39.3722C28.2804 39.3722 33.2153 35.8349 34.9346 30.5701C35.343 29.3185 35.55 28.0126 35.55 26.6885C35.5508 25.389 34.495 24.3351 33.1921 24.3351Z" fill="white"/>
<path d="M3.8954 12.968C4.89147 13.4471 5.62214 14.3695 6.05543 15.3844C6.48951 16.3984 6.65339 17.5058 6.75172 18.6043C6.9196 20.485 6.90441 22.3816 6.70695 24.259C6.68377 24.479 6.60303 24.7565 6.38239 24.7764C6.2313 24.7899 6.10659 24.6664 6.00586 24.5516C4.13522 22.4214 2.44205 20.1342 0.980715 17.7059C0.551427 16.9924 0.13413 16.2438 0.0254093 15.4187C-0.267978 13.1896 2.03835 12.0743 3.8954 12.968Z" fill="white"/>
</svg>
