<svg width="40" height="40" viewBox="0 0 40 40" fill="none" xmlns="http://www.w3.org/2000/svg">
<path fill-rule="evenodd" clip-rule="evenodd" d="M20 4.04488C11.1883 4.04488 4.04494 11.1882 4.04494 19.9999C4.04494 28.8117 11.1883 35.955 20 35.955C28.8117 35.955 35.9551 28.8117 35.9551 19.9999C35.9551 11.1882 28.8117 4.04488 20 4.04488ZM0 19.9999C0 8.95424 8.9543 -6.10352e-05 20 -6.10352e-05C31.0457 -6.10352e-05 40 8.95424 40 19.9999C40 31.0456 31.0457 39.9999 20 39.9999C8.9543 39.9999 0 31.0456 0 19.9999ZM17.6817 13.47C18.5478 14.1753 18.678 15.4492 17.9727 16.3153C16.9286 17.5973 15.4069 18.4269 13.7079 18.4269C11.9886 18.4269 10.5122 17.5805 9.4667 16.3438C8.74559 15.4908 8.85253 14.2147 9.70555 13.4936C10.5586 12.7725 11.8347 12.8794 12.5558 13.7325C12.9845 14.2396 13.3957 14.382 13.7079 14.382C14.0403 14.382 14.4602 14.2228 14.8363 13.761C15.5417 12.8949 16.8156 12.7646 17.6817 13.47ZM30.2659 13.47C31.132 14.1753 31.2623 15.4492 30.5569 16.3153C29.5128 17.5973 27.9911 18.4269 26.2921 18.4269C24.5729 18.4269 23.0964 17.5805 22.051 16.3438C21.3299 15.4908 21.4368 14.2147 22.2898 13.4936C23.1428 12.7725 24.4189 12.8794 25.14 13.7325C25.5687 14.2396 25.9799 14.382 26.2921 14.382C26.6246 14.382 27.0445 14.2228 27.4206 13.761C28.1259 12.8949 29.3999 12.7646 30.2659 13.47ZM13.5295 23.7576C14.9889 22.6962 17.1956 21.573 20 21.573C22.8044 21.573 25.0111 22.6962 26.4705 23.7576C27.204 24.291 27.7711 24.8244 28.1596 25.2298C28.3547 25.4334 28.5072 25.6072 28.6155 25.7363C28.6697 25.8009 28.7131 25.8545 28.7453 25.8952L28.7855 25.9466L28.7993 25.9647L28.8047 25.9717L28.807 25.9748C28.807 25.9748 28.809 25.9774 27.3154 27.0976L28.809 25.9775C29.4792 26.8711 29.2981 28.1387 28.4045 28.8089C27.5139 29.4768 26.2518 29.2992 25.5799 28.4135C25.5799 28.4135 25.5768 28.4096 25.5739 28.4059C25.5645 28.394 25.5455 28.3704 25.5172 28.3366C25.4605 28.269 25.3672 28.162 25.2392 28.0285C24.9817 27.7598 24.5937 27.3942 24.0913 27.0288C23.0787 26.2924 21.6899 25.6179 20 25.6179C18.3101 25.6179 16.9213 26.2924 15.9087 27.0288C15.4063 27.3942 15.0183 27.7598 14.7608 28.0285C14.6328 28.162 14.5395 28.269 14.4828 28.3366C14.4545 28.3704 14.4355 28.394 14.4261 28.4059L14.4236 28.4089L14.4201 28.4135C13.7482 29.2992 12.486 29.4768 11.5955 28.8089C10.7019 28.1387 10.5208 26.8711 11.191 25.9775L12.7136 27.1194C11.191 25.9774 11.191 25.9775 11.191 25.9775L11.193 25.9748L11.1953 25.9717L11.2007 25.9647L11.2145 25.9466L11.2547 25.8952C11.2869 25.8545 11.3303 25.8009 11.3845 25.7363C11.4928 25.6072 11.6453 25.4334 11.8404 25.2298C12.2289 24.8244 12.796 24.291 13.5295 23.7576Z" fill="#EA4256"/>
</svg>
